<svg width="717" height="665" viewBox="0 0 717 665" fill="none" xmlns="http://www.w3.org/2000/svg">
<path d="M4.82102 0L1 1.98063M716.952 29.8765L669.13 34.0406L637.833 37.7513L613.14 42.1302L601.999 44.8267L591.026 48.1198L580.948 51.8543L573.091 55.3383L556.863 64.454L540.146 76.7554L511.381 101.525L498.939 111.178L483.249 121.2L467.165 129.051L448.31 135.888L425.468 141.961L403.724 146.471L351.579 156.04L326.444 161.779L307.303 167.781L290.944 175.023L282.311 180.13L274.227 186.048L266.788 192.765L260.029 200.163L254.322 207.513L248.268 216.39L227.396 251.456L218.356 265.213L207.646 278.66L196.409 289.673L189.114 295.46L180.791 301.056L172.074 306.007L160.432 311.555L139.022 319.717L95.9763 333.283L81.0862 338.425L65.2528 345.107L52.1658 352.516L45.8492 357.217L39.0191 363.529L32.9055 370.545L28.0576 377.632L24.3918 384.6L21.4305 392.654L19.7588 400.35L19.2334 407.485L19.723 414.62L21.4782 422.292L24.4754 429.57L28.583 436.275L33.6339 442.313L40.5356 448.553L47.5567 453.493L55.6525 458.098L72.0949 465.173L92.597 471.569L116.992 477.367L174.606 488.834L202.559 495.157L230.106 503.02L243.635 507.757L256.268 512.804L278.263 523.256L300.616 536.094L321.572 549.863L369.633 583.606L390.804 597.028L413.539 609.187L435.988 618.601L450.269 623.326L466.878 627.764L480.885 630.771L502.079 634.326L539.084 638.681L621.892 645.685L655.374 649.241L687.936 654.288L701.955 657.235L716.522 660.969M716.57 42.5477L674.503 46.6641L645.404 50.6612L621.558 55.6008L601.748 61.8052L585.437 69.1908L570.249 78.6525L554.678 91.276L526.606 117.871L514.605 128.085L499.954 138.358L484.192 146.841L465.577 154.262L442.889 160.884L420.536 165.979L372.093 175.846L348.474 181.753L328.139 188.697L319.638 192.491L312.055 196.536L303.637 201.976L295.792 208.217L288.592 215.185L282.036 222.773L270.896 238.558L248.984 275.51L240.005 289.315L229.509 302.917L218.082 314.777L204.159 326.004L187.717 336.17L169.746 345.059L127.142 363.839L115.093 370.175L105.995 375.878L95.9524 383.944L89.3731 391.485L86.782 395.768L85.0983 399.717L84.0356 403.881L83.7252 407.437L84.0834 411.72L85.4924 416.517L87.4387 420.347L89.8985 423.867L97.0151 430.894L107.738 438.029L119.929 444.067L136.587 450.629L195.18 469.672L218.118 477.857L240.602 487.223L259.265 496.339L278.597 507.256L298.479 520.034L320.641 535.832L363.09 567.57L384.965 582.52L397.192 589.977L409.133 596.503L421.396 602.41L432.632 607.111L447.487 612.36L463.332 616.882L480.109 620.665L497.028 623.672L537.543 628.719L623.206 636.104L655.255 639.564L688.509 644.79L701.823 647.63L716.391 651.388M716.63 36.1286L673.118 40.1256L641.141 44.2182L617.235 48.8714L597.306 54.706L588.626 58.0826L578.906 62.6523L564.171 71.4936L548.326 83.7591L521.256 108.29L508.563 118.778L492.551 129.6L476.634 137.785L457.218 145.159L437.229 150.79L414.148 155.897L363.508 165.705L339.113 171.491L318.67 178.09L309.428 182.003L301.774 185.905L293.846 190.785L285.845 196.822L277.499 204.661L271.361 211.653L260.125 227.379L239.289 262.469L229.915 276.87L219.336 290.401L207.216 302.571L200.565 308.012L191.765 314.168L183.143 319.299L172.289 324.811L152.468 333.116L115.404 346.467L102.078 351.717L89.7313 357.456L77.9697 364.281L66.029 373.408L60.5005 379.004L56.0824 384.648L53.1092 389.54L50.5061 395.422L48.9897 400.946L48.3329 407.341L48.7747 413.045L50.1718 418.593L52.4763 423.831L55.975 429.236L59.7243 433.567L65.038 438.351L71.4621 442.921L78.2682 446.871L93.9583 453.886L114.341 460.663L133.709 465.913L186.558 478.978L212.72 486.483L234.381 494L254.847 502.603L277.809 514.331L301.046 528.494L319.948 541.463L363.985 573.452L389.085 590.037L400.846 596.873L413.575 603.46L425.969 609.055L436.644 613.231L450.233 617.765L465.445 621.918L480.132 625.151L497.769 628.241L539.728 633.348L621.104 640.268L655.302 643.907L687.853 648.978L701.871 651.937L716.451 655.684M716.916 32.8593L669.118 37.1666L637.129 41.2233L613.916 45.6856L593.282 51.6514L583.933 55.2786L575.491 59.216L568.565 62.9625L559.478 68.6896L544.672 79.9768L515.68 105.558L503.333 115.354L488.348 125.149L471.702 133.466L452.896 140.41L431.474 146.256L411.163 150.635L356.26 161.027L333.238 166.421L313.452 172.72L303.553 176.896L295.899 180.81L287.983 185.702L280.006 191.775L272.687 198.612L265.582 206.666L254.417 222.439L234.333 256.312L225.354 270.117L213.341 285.258L202.069 296.247L194.774 302.034L186.463 307.642L178.403 312.295L167.477 317.676L146.199 326.171L92.6568 344.51L78.2205 350.81L66.9962 357.146L59.4258 362.563L52.3808 368.636L46.506 374.9L42.2193 380.639L38.3147 387.475L35.8788 393.429L34.1115 400.362L33.4787 406.769L33.8489 413.188L35.4489 420.156L37.9206 426.098L41.682 432.195L46.303 437.659L52.7032 443.387L59.7482 448.29L67.247 452.502L75.0323 456.141L85.0386 460.055L106.95 466.784L127.118 471.748L183.072 484.133L210.117 491.148L233.987 498.82L255.265 507.327L277.761 518.388L301.177 532.252L321.369 545.854L367.412 578.749L389.658 593.151L401.467 599.916L412.93 605.81L423.354 610.571L436.012 615.594L449.588 620.14L464.789 624.304L482.294 628.098L499.238 630.974L537.651 635.639L620.448 642.678L653.941 646.198L688.617 651.567L702.635 654.55L716.51 658.13M716.988 26.3925L665.595 30.7832L636.412 34.1599L610.298 38.6581L588.841 44.3255L580.052 47.4277L570.177 51.6396L561.878 55.8633L553.257 60.9938L537.579 72.293L507.954 97.1582L494.808 107.073L478.95 116.833L462.759 124.457L445.206 130.662L423.737 136.329L397.049 141.722L347.674 150.492L323.876 155.67L301.929 162.268L293.284 165.717L284.269 170.095L275.075 175.656L267.087 181.705L260.256 188.029L253.558 195.486L247.48 203.456L241.127 212.989L222.512 244.405L213.927 257.613L203.323 271.131L197.926 276.859L191.072 283.158L182.57 289.721L174.749 294.768L165.961 299.588L155.56 304.408L131.345 313.262L87.4029 326.339L70.3994 331.97L54.5063 338.509L40.7625 346.193L33.8847 351.335L27.6636 357.253L21.7291 364.424L16.2483 372.812L12.4153 380.496L9.25105 389.241L7.22113 398.321L6.51663 406.876L7.1256 416.159L9.02418 424.523L11.8899 431.849L16.9886 440.463L22.959 447.598L29.8726 453.839L38.064 459.601L47.4613 464.804L65.3365 472.165L85.9461 478.25L113.219 484.276L173.842 495.277L201.89 501.135L230.942 508.938L255.241 517.577L279.338 528.589L302.419 541.595L324.056 555.626L368.809 586.612L393.109 601.777L414.053 612.73L436.549 622.037L450.161 626.499L466.783 630.914L481.494 634.04L501.279 637.345L537.555 641.652L621.08 648.704L655.279 652.307L689.25 657.605L716.451 664M716.976 55.1593L682.097 59.0251L653.786 63.4756L632.866 68.3794L614.585 74.6673L606.107 78.5212L598.548 82.6137L590.691 87.613L583.778 92.7077L568.816 106.047L543.036 132.917L531.059 144.216L516.325 155.587L501.53 164.321L484.503 171.861L464.096 178.579L442.591 184.091L388.058 196.297L365.979 202.454L355.161 206.236L345.25 210.4L336.94 214.6L328.975 219.408L320.891 225.338L313.404 232.008L306.55 239.31L299.852 247.71L288.771 264.402L260.937 311.997L253.689 322.652L245.82 332.853L232.721 347.075L202.081 374.041L195.442 380.555L189.341 387.583L185.687 392.88L183.084 397.987L181.591 402.76L181.054 407.735L181.472 411.995L182.427 415.443L184.182 419.368L186.845 423.604L193.46 431.121L204.386 440.38L218.404 450.319L260.268 477.916L282.49 493.63L308.091 513.198L356.152 551.725L378.027 567.916L391.15 576.638L402.828 583.629L414.841 590.013L425.874 595.167L440.525 600.978L457.576 606.43L475.655 610.917L494.652 614.532L515.214 617.527L535.86 619.889L622.215 627.466L657.105 631.308L689.632 636.581L716.785 643.132M716.51 48.7044L678.037 52.7254L650.395 56.794L628.018 61.7098L617.713 64.7762L608.292 68.2125L598.489 72.5913L591.539 76.302L584.231 80.8241L576.661 86.241L562.535 98.3634L536.66 124.147L524.468 135.22L516.026 141.854L508.348 147.127L492.718 155.837L475.523 162.996L454.329 169.571L434.841 174.343L382.302 185.595L358.743 191.763L338.504 198.946L329.405 203.17L321.285 207.727L312.437 213.813L305.309 219.802L298.252 226.913L290.944 235.731L279.672 252.316L261.247 283.839L252.184 298.431L243.05 311.269L232.363 323.785L221.485 334.166L207.896 344.677L195.263 352.838L161.268 372.752L146.127 383.562L139.357 389.957L134.963 395.601L132.133 401.364L131.046 407.687L131.404 411.243L132.431 414.667L136.025 420.836L142.509 427.494L150.581 433.424L159.823 438.9L170.021 444.15L214.977 464.66L234.333 474.015L251.408 483.095L265.033 491.017L281.953 501.767L299.601 514.033L357.06 557.965L379.747 574.263L392.392 582.412L405.419 589.941L417.539 596.11L429.325 601.336L446.806 607.755L461.935 612.181L478.676 616.071L497.709 619.507L533.949 624.125L621.033 631.725L654.502 635.317L687.065 640.388L701.083 643.347L716.343 647.284M716.522 45.7453L675.9 49.8736L648.245 53.8349L624.448 58.9654L606.716 64.6448L598.118 68.2481L589.796 72.4122L581.795 77.161L574.129 82.4585L560.35 93.877L533.137 120.341L520.277 131.736L504.599 143.035L488.897 151.614L470.305 159.142L449.731 165.323L428.119 170.441L377.633 181.013L353.358 187.277L333.787 194.209L325.333 198.111L317.799 202.251L310.037 207.381L301.691 214.147L294.574 221.198L288.078 228.834L282.144 236.912L275.493 247.113L256.65 279.221L247.062 294.338L236.339 308.668L225.676 320.241L212.661 331.469L197.866 341.539L182.236 350.273L146.402 368.29L135.237 374.745L126.927 380.34L118.699 387.249L113.099 393.74L109.421 400.684L108.49 404.132L108.168 407.699L108.502 411.255L109.481 414.691L112.956 420.919L118.831 427.172L128.097 433.913L139.393 440.117L153.101 446.298L205.878 466.725L225.043 474.743L243.85 483.56L262.812 493.666L282.406 505.55L299.625 517.171L318.133 530.677L359.746 562.344L383.21 578.773L405.336 592.005L418.124 598.448L431.271 604.152L445.409 609.294L461.899 614.15L478.64 618.028L496.264 621.226L533.209 625.974L620.997 633.622L656.616 637.476L689.859 642.81L716.319 649.133M716.845 39.3262L671.924 43.6216L644.938 47.2129L620.34 52.081L609.283 55.0997L599.778 58.2854L583.396 65.492L574.667 70.4317L567.502 75.1685L552.35 87.1716L525.053 112.502L511.907 123.575L497.793 133.37L489.709 138L480.717 142.426L463.391 149.251L441.385 155.67L420.441 160.443L367.747 170.955L344.785 176.55L324.39 183.316L316.497 186.716L308.222 190.976L299.147 196.727L291.266 202.931L284.054 209.875L277.475 217.452L265.952 233.834L245.522 268.339L236.172 282.753L225.199 296.892L213.664 308.632L207.084 314.156L199.562 319.657L191.096 325.014L182.308 329.846L164.11 338.27L116.908 357.217L102.759 364.137L91.1164 371.177L84.764 375.83L79.9041 380.066L72.4054 388.704L69.468 393.62L67.5216 398.226L66.2917 403.082L65.9096 407.353L66.3156 412.341L67.3903 416.505L69.3963 421.087L72.083 425.31L76.31 430.166L81.146 434.426L91.9284 441.466L106.162 448.207L123.667 454.59L142.855 460.425L191.132 474.003L216.35 482.128L237.76 490.337L255.385 498.295L278.741 510.811L300.556 524.545L319.912 538.111L364.893 571.244L387.508 586.386L410.578 599.403L421.587 604.617L433.504 609.545L446.34 614.067L462.162 618.636L478.926 622.466L497.972 625.843L539.919 630.962L623.445 638.109L656.914 641.748L688.748 646.795L702.062 649.634L716.63 653.393M716.809 67.8425L684.139 72.1378L661.607 76.3735L642.251 81.6234L625.594 88.1618L617.307 92.4094L610.573 96.5019L597.426 106.405L584.052 119.339L557.09 149.991L546.57 160.729L539.621 166.934L531.716 173.09L523.979 178.269L516.528 182.564L499.632 190.355L479.296 197.299L456.442 203.36L408.321 214.648L382.875 222.057L372.141 226.054L362.97 230.123L354.122 234.836L345.692 240.265L335.125 248.82L326.145 258.066L317.333 269.342L307.673 284.411L279.517 336.743L262.203 365.593L256.399 376.296L252.889 384.135L250.31 391.568L248.566 399.24L247.874 407.079L248.304 414.226L249.94 421.922L252.65 429.307L257.283 438.184L262.847 446.524L270.382 456.082L289.869 477.069L328.736 514.14L346.898 530.355L363.352 544.172L378.087 555.555L391.592 564.98L406.231 573.989L419.533 581.028L435.235 587.996L454.161 594.642L472.848 599.641L492.503 603.627L510.199 606.395L535.083 609.413L622.143 617.24L654.18 620.784L688.127 626.237L703.519 629.637L716.666 633.157M716.654 61.2205L685.345 64.9551L659.207 69.3459L638.359 74.5361L620.877 80.9194L606.25 88.4721L599.05 93.173L591.085 99.2582L578.44 110.891L550.797 140.923L538.51 152.938L524.504 164.07L516.074 169.499L508.551 173.663L492.873 180.703L471.834 187.766L447.558 194.042L399.377 205.091L375.95 211.736L363.818 216.115L354.624 220.124L346.349 224.372L337.226 230.051L328.712 236.59L319.411 245.503L311.542 254.797L304.067 265.297L294.371 281.178L274.537 316.853L264.818 332.722L254.083 347.934L234.799 371.941L227.563 382.596L223.837 389.528L221.437 395.505L219.861 401.746L219.359 407.449L219.801 413.152L221.175 418.7L223.348 423.998L226.906 430.214L230.667 435.44L236.244 441.979L252.161 457.442L339.411 531.727L364.427 552.047L378.804 562.725L393.061 572.318L407.855 581.064L421.265 587.877L437.755 594.857L453.349 600.166L470.64 604.82L491.703 609.115L510.104 611.967L535 614.95L619.922 622.478L654.825 626.273L688.772 631.713L704.164 635.114L716.618 638.431M716.713 58.0229L681.13 62.1751L657.105 66.1363L636.902 70.9447L628.018 73.7367L617.976 77.5787L602.644 85.3341L595.42 89.9754L587.957 95.5475L574.655 107.515L547.167 136.711L534.761 148.607L520.659 159.62L505.279 168.783L487.595 176.586L467.857 183.065L445.66 188.78L396.046 199.984L369.848 207.346L359.734 210.985L349.871 215.232L340.975 219.862L333.095 224.813L324.569 231.34L317.739 237.664L310.061 246.171L303.135 255.286L292.329 272.181L268.937 313.238L257.594 330.622L244.745 346.92L218.321 375.15L209.688 386.569L206.153 392.785L203.98 398.083L202.774 402.939L202.38 407.938L202.881 412.913L204.231 417.734L206.308 422.292L209.329 427.148L218.177 437.469L230.978 448.935L290.478 494.919L346.397 540.807L368.379 558.036L382.35 568.047L395.568 576.626L408.608 584.131L423.366 591.445L439.94 598.21L456.287 603.543L475.726 608.447L494.724 612.074L513.865 614.902L538.069 617.682L621.57 625.008L655.04 628.659L688.283 633.956L702.289 636.987L716.833 640.805M716.881 51.9856L677.703 56.2571L650.813 60.4808L628.508 65.7426L610.931 71.8754L602.465 75.7531L594.297 80.2155L581.282 89.0925L567.216 101.275L540.123 128.872L528.576 139.575L513.781 150.874L497.673 160.204L488.563 164.392L478.556 168.294L458.042 174.689L435.773 180.154L388.177 190.522L362.576 197.383L351.065 201.344L341.799 205.174L333.453 209.302L326.05 213.669L317.321 219.921L309.786 226.531L302.885 233.798L295.302 243.319L284.639 259.439L259.277 302.666L250.417 315.696L241.987 326.374L232.745 336.349L221.604 346.443L210.846 354.771L185.818 372.728L171.621 384.755L166.319 390.578L162.307 396.496L159.883 402.45L159.178 408.117L159.596 411.661L160.635 415.085L164.134 421.313L170.391 428.186L179.919 435.75L194.427 444.973L238.763 469.886L266.251 486.71L282.275 497.532L299.1 509.726L357.788 555.578L379.222 571.161L391.21 579.012L402.912 585.956L414.948 592.304L427.319 597.983L443.367 604.14L460.49 609.366L477.911 613.506L496.229 616.882L533.878 621.751L622.382 629.518L655.852 633.169L689.799 638.622L716.952 645.172M716.821 80.5137L686.396 85.3699L663.41 90.8703L652.532 94.4498L643.242 98.232L634.908 102.372L627.516 106.763L616.006 115.282L604.077 126.617L594.166 137.928L571.3 166.409L557.568 181.001L550.021 187.599L542.57 193.183L534.725 198.194L525.901 202.955L510.784 209.481L491.046 215.984L473.052 220.78L423.605 232.676L400.942 239.394L388.87 243.928L377.813 249.022L368.475 254.332L360.236 260.047L348.976 269.998L339.16 281.381L329.202 296.235L319.351 314.514L304.222 347.744L294.311 372.299L291.601 381.2L289.392 390.971L288.281 398.775L287.827 407.341L288.389 417.352L290.001 426.515L292.592 435.44L296.329 444.747L300.855 453.683L307.971 465.269L315.028 475.184L324.39 486.96L335.733 499.87L347.626 512.279L359.495 523.697L373.49 535.975L387.007 546.594L397.562 554.003L409.706 561.58L422.316 568.393L437.982 575.444L454.161 581.279L472.084 586.314L493.112 590.752L512.217 593.807L534.964 596.635L621.271 604.653L658.276 608.948L689.345 614.246L716.451 621.023M716.761 73.5815L684.856 78.199L660.353 83.5085L650.06 86.563L639.97 90.2618L630.836 94.3901L622.668 98.8763L610.883 107.002L598.083 118.456L586.488 131.139L563.478 158.57L550.451 171.861L542.821 178.364L535.907 183.459L528.05 188.458L518.581 193.529L503.441 200.008L485.076 206.081L464.299 211.593L417.599 222.678L393.526 229.657L382.756 233.583L371.615 238.499L362.17 243.617L352.654 250.001L342.301 258.818L332.199 269.938L322.252 283.946L312.569 300.674L282.574 360.916L276.711 373.981L273.343 383.419L270.991 392.415L269.749 400.194L269.343 407.341L269.857 415.908L271.66 425.036L274.096 432.517L278.191 441.656L283.911 451.583L290.407 461.021L298.335 471.187L309.56 484.192L322.79 498.295L338.014 513.448L352.164 526.621L367.902 540.175L382.016 551.2L394.327 559.838L405.861 567.057L420.99 575.218L438.018 582.735L455.606 588.855L472.896 593.521L493.243 597.697L512.36 600.68L536.54 603.603L620.734 611.251L653.487 614.89L672.628 617.682L688.832 620.641L702.814 623.767L716.654 627.49M716.307 64.1318L683.614 68.2482L659.649 72.5555L638.872 78.0559L622.836 84.2245L608.328 92.0157L594.453 102.134L580.41 115.413L555.538 143.118L542.952 155.849L535.382 162.424L527.382 168.473L512.707 177.409L495.763 185.105L474.711 192.169L454.627 197.466L403.688 209.302L379.592 216.211L370.147 219.599L359.615 224.109L351.34 228.369L341.644 234.466L331.554 242.484L322.957 251.098L314.396 261.67L305.249 275.355L272.4 334.094L263.934 347.374L249.164 368.492L242.871 378.921L239.121 386.64L236.435 394.038L234.715 401.722L234.297 408.141L235.002 415.264L236.877 422.16L239.73 428.723L244.101 436.12L249.176 443.052L256.626 451.751L276.4 471.473L331.733 521.323L348.57 535.808L365.788 549.816L380.129 560.542L394.374 570.147L409.181 578.881L422.602 585.67L437.779 592.089L454.735 597.852L474.126 602.935L493.1 606.693L515.059 609.986L535.704 612.396L622.764 620.164L654.801 623.707L688.748 629.172L704.128 632.584L716.594 635.913M716.391 93.2924L690.372 98.3514L671.769 103.625L663.709 106.608L654.562 110.7L646.383 115.163L639.194 119.876L627.576 129.409L616.722 140.816L607.767 151.983L586.882 180.189L574.249 194.806L568.064 200.771L560.911 206.725L552.708 212.488L544.051 217.547L527.776 224.992L508.79 231.471L489.434 236.733L438.615 249.034L415.295 256.074L403.927 260.441L392.918 265.643L384.249 270.666L374.947 277.348L363.973 287.621L354.564 299.338L345.907 313.333L338.325 328.749L329.298 351.359L322.766 371.809L318.993 390.029L317.691 407.139L318.038 416.445L319.303 426.384L321.488 436.156L324.545 445.701L328.987 456.249L333.931 465.782L340.283 476.174L346.862 485.552L355.758 496.768L364.332 506.397L373.896 516.073L384.511 525.678L394.542 533.78L405.611 541.69L415.318 547.787L427.259 554.302L441.6 560.828L457.075 566.496L474.986 571.602L495.285 575.969L513.674 578.988L537.113 581.995L622.692 590.287L656.114 594.308L688.581 599.964L701.143 602.875L716.319 607.099M716.761 86.2051L687.841 91.2999L667.064 96.7645L649.702 103.47L641.415 107.718L632.914 113.027L621.666 121.88L611.026 132.499L600.447 145.123L579.025 172.911L566.058 187.241L558.093 194.46L551.311 199.721L543.55 204.864L535.43 209.422L520.408 216.175L502.115 222.439L482.079 227.916L432.632 239.835L407.246 247.435L396.548 251.54L386.147 256.36L375.604 262.445L368.021 267.838L357.358 277.396L346.779 289.995L336.784 305.697L327.757 323.582L316.402 350.655L311.888 362.73L308.413 373.635L306.133 382.655L304.342 392.523L303.458 401.065L303.255 408.928L303.816 418.223L305.428 428.102L307.816 437.099L311.542 447.169L316.139 456.869L321.441 466.211L328.533 476.974L336.689 487.855L346.815 499.918L356.558 510.418L366.242 519.975L379.078 531.417L389.132 539.471L401.384 548.205L411.688 554.684L424.907 561.866L439.916 568.632L458.138 575.11L476.108 579.99L495.046 583.916L515.572 587.161L538.331 589.953L622.489 597.888L655.935 601.813L688.414 607.337L702.385 610.535L716.881 614.544M716.331 106.071L695.435 111.035L678.467 116.774L663.625 123.885L650.538 132.643L640.388 141.687L630.836 152.353L622.203 163.784L601.844 193.231L590.142 207.704L583.646 214.361L576.649 220.506L569.747 225.637L561.246 230.946L545.138 238.737L524.874 245.884L504.85 251.385L454.018 263.698L430.029 270.964L419.342 275.105L407.712 280.665L398.506 286.189L390.458 292.167L381.108 301.032L371.794 312.82L364.128 325.742L357.561 340.06L350.874 358.947L346.516 375.568L343.734 392.511L342.886 408.236L343.268 417.531L344.474 427.47L346.516 437.29L349.155 446.214L352.725 455.569L356.689 463.992L361.943 473.358L367.842 482.331L374.314 490.898L381.299 499.059L389.264 507.292L397.73 515.011L405.527 521.323L414.841 527.993L423.939 533.696L434.65 539.495L449.696 546.2L463.189 551.021L478.329 555.364L497.912 559.695L518.402 563.131L540.421 566.018L619.54 574.084L654.371 578.415L672.055 581.291L687.506 584.381L703.507 588.307L716.558 592.172M716.773 118.838L700.283 123.646L685.011 129.815L671.303 137.57L659.983 146.34L650.884 155.456L642.311 166.015L634.12 177.767L616.925 204.16L604.746 220.077L598.393 226.877L590.966 233.607L584.124 238.809L576.291 243.832L568.088 248.235L559.61 252.089L539.382 259.319L517.973 265.225L468.562 277.276L444.585 284.614L431.952 289.673L423.593 293.777L414.984 298.908L407.485 304.42L399.091 312.2L390.924 322.162L384.153 333.128L378.374 345.429L373.132 360.284L368.881 376.916L366.409 392.475L365.573 408.189L366.803 425.31L368.332 433.77L370.684 442.766L373.753 451.548L377.514 460.067L382.278 468.884L386.505 475.53L392.894 484.156L398.482 490.683L405.491 497.854L412.429 504.058L419.748 509.809L428.011 515.489L444.895 524.903L458.699 530.856L472.932 535.748L488.133 539.877L505.65 543.623L543.179 549.314L622.239 557.977L654.897 562.379L687.256 568.584L703.197 572.712L716.881 576.995M716.546 131.903L701.811 137.451L689.071 143.989L679.578 150.408L669.858 158.868L662.121 167.303L654.717 176.968L630.466 214.994L619.946 229.479L613.355 237.019L606.668 243.51L599.468 249.404L592.399 254.272L584.972 258.615L575.324 263.34L555.228 270.929L534.582 276.894L482.461 289.9L458.532 297.393L447.916 301.7L438.292 306.473L429.755 311.734L422.913 316.925L415.163 324.346L408.44 332.722L402.804 341.861L397.395 353.542L392.798 367.108L389.395 381.009L387.306 395.171L386.697 408.749L387.783 423.735L389.156 431.491L391.294 439.807L393.598 446.584L397.288 455.127L405.217 468.717L415.044 481.018L420.572 486.626L427.57 492.759L441.003 502.28L456.776 510.74L468.681 515.703L480.885 519.844L494.008 523.471L510.796 527.181L544.732 532.67L622.274 541.941L656.294 546.94L673.178 550.15L689.238 553.872L702.349 557.523L716.63 562.248M716.642 145.171L705.644 150.385L695.865 156.362L686.85 163.414L679.172 170.919L672.676 178.567L665.548 188.422L643.374 224.372L633.105 239.036L627.134 246.183L620.651 252.852L613.068 259.415L605.522 264.855L598.178 269.318L589.258 273.9L580.052 277.885L567.944 282.299L545.961 288.814L495.333 301.879L472.849 309.169L462.269 313.584L453.97 317.796L446.054 322.699L439.224 327.913L432.501 334.345L426.208 342.136L420.954 350.667L416.19 361.083L412.393 371.881L409.217 384.373L407.318 397.104L406.817 408.547L407.927 422.805L410.936 436.061L415.903 448.708L422.757 460.449L431.796 471.545L442.376 481.186L454.758 489.693L468.741 496.959L479.344 501.302L490.891 505.18L502.617 508.437L516.587 511.635L548.338 517.159L623.624 527.122L656.867 532.515L673.691 536.011L687.602 539.471L703.388 544.184L716.881 548.992M716.773 158.892L708.797 163.7L701.871 168.783L694.396 175.465L688.068 182.278L681.847 190.14L676.545 197.8L654.287 234.538L644.508 248.664L638.609 255.859L632.197 262.612L624.71 269.27L617.832 274.425L609.976 279.412L600.483 284.447L590.655 288.802L580.613 292.596L558.726 299.433L508.253 313.107L486.556 320.492L470.353 328.081L463.033 332.591L455.642 338.246L449.481 344.224L444.083 350.906L439.2 358.828L434.567 368.504L431.319 377.226L428.513 387.583L426.972 396.758L426.316 407.473L427.151 419.607L429.599 430.787L433.695 441.466L439.797 451.989L447.498 461.403L457.624 470.471L468.323 477.654L481.076 484.18L492.372 488.714L503.261 492.282L517.101 496.004L532.492 499.381L559.299 504.082L631.588 514.832L665.345 521.347L691.65 528.315L705.25 532.849L716.606 537.216M716.857 173.484L710.11 178.806L703.865 184.7L698.11 191.083L692.82 197.86L683.315 212.166L663.506 245.371L651.863 261.682L640.723 273.792L628.579 283.827L620.197 289.315L612.041 293.825L601.008 298.956L591.682 302.643L571.276 309.396L522.402 323.463L502.151 330.646L493.004 334.738L484.801 339.153L478.795 343.055L473.147 347.457L467.965 352.385L462.902 358.422L457.732 366.154L453.361 374.363L449.887 383.001L447.702 390.566L446.281 398.309L445.672 406.864L446.388 417.567L448.645 427.327L452.776 437.23L457.684 445.129L464.168 452.753L472.777 460.305L482.318 466.653L494.437 472.822L503.739 476.592L515.286 480.458L540.958 486.984L566.989 491.984L629.869 502.555L662.813 509.475L691.065 517.505L703.22 521.812L716.487 527.217M716.964 189.58L708.63 198.457L699.196 211.056L691.184 223.775L675.196 250.919L666.073 264.629L656.198 276.906L645.487 287.442L637.642 293.682L628.698 299.624L619.946 304.516L608.268 309.98L586.799 318.022L544.373 331.159L528.098 336.695L510.951 343.949L499.142 350.679L492.24 355.809L485.971 361.68L479.882 368.719L474.652 376.415L471.022 383.395L468.239 390.757L466.401 398.405L465.612 406.96L466.317 416.219L468.466 424.535L472.013 432.35L476.359 438.912L482.592 445.809L489.745 451.762L498.772 457.573L508.36 462.417L525.746 469.075L547.812 475.268L571.61 480.494L632.09 492.234L662.753 499.488L690.121 507.96L703.507 513.067L716.642 518.806M716.654 208.551L705.119 224.933L684.665 259.427L676.438 272.014L666.348 285.02L654.288 297.249L647.075 303.144L639.457 308.489L630.86 313.643L620.006 319.156L600.148 327.365L558.81 341.539L544.051 347.052L529.698 353.542L518.582 360.069L511.632 365.116L505.686 370.282L499.811 376.558L495.166 382.906L491.428 389.826L489.184 395.863L487.93 401.447L487.44 407.866L488.145 414.99L490.151 421.85L493.375 428.233L497.59 434.008L502.581 439.127L509.316 444.472L516.599 449.03L525.555 453.552L542.224 460.055L561.449 465.794L634.693 482.868L663.745 490.707L690.838 500.001L704.725 505.788L716.391 511.277M716.88 229.932L693.369 269.27L684.342 283.039L673.739 296.557L667.374 303.346L661.082 309.205L654.419 314.634L646.227 320.409L637.033 325.957L628.149 330.61L609.832 338.771L563.228 357.277L550.367 363.577L539.298 370.187L532.934 374.816L527.525 379.517L523.573 383.657L519.644 388.764L517.101 393.083L515.13 397.689L513.853 402.533L513.387 407.508L513.936 413.2L515.357 417.996L517.925 423.115L521.746 428.293L526.307 432.851L531.943 437.254L537.985 441.096L546.236 445.403L558.105 450.45L576.398 456.714L638.49 474.086L667.171 483.154L691.232 492.437L716.439 504.464M716.833 219.42L709.334 230.779L690.408 262.839L681.441 276.644L669.488 291.833L657.762 303.382L649.917 309.634L641.63 315.266L624.663 324.525L605.558 332.686L553.854 351.896L540.266 358.315L528.576 365.283L521.65 370.366L516.277 375.102L511.859 379.792L507.56 385.519L504.408 391.126L502.091 397.14L500.802 402.712L500.444 408.415L501.076 414.107L502.688 419.595L505.566 425.346L509.817 431.097L514.904 436.144L521.137 440.941L528.468 445.427L536.146 449.281L550.093 454.924L567.132 460.413L636.532 478.191L665.404 486.638L690.981 495.957L704.773 501.958L717 507.936M716.976 253.998L702.146 279.328L691.948 294.899L680.855 308.954L669.81 320.17L657.571 330.073L641.881 340.107L626.024 348.412L586.524 367.085L576.494 372.621L567.455 378.443L558.571 385.65L552.409 392.618L548.612 399.491L547.549 402.915L547.012 407.162L547.358 411.434L548.564 415.55L550.499 419.38L553.448 423.425L557.46 427.518L561.914 431.121L572.852 437.922L583.813 443.231L597.067 448.672L649.033 467.154L673.07 476.496L696.557 487.127L716.797 497.878M716.737 243.665L698.957 273.911L689.572 288.313L678.085 302.953L665.941 315.099L652.95 325.205L636.4 335.192L617.689 344.212L577.544 361.465L565.389 367.598L554.953 373.862L544.218 382.202L539.681 386.772L536.552 390.685L533.901 394.933L531.895 399.526L530.844 403.69L530.51 407.962L530.952 412.233L532.421 417.006L534.773 421.433L537.782 425.43L541.806 429.51L546.845 433.531L559.765 441.191L571.526 446.477L586.285 451.989L644.341 470.364L670.013 479.408L694.444 489.681L716.809 501.004M716.689 279.591L706.767 296.176L698.384 308.668L690.05 319.406L680.867 329.453L670.288 339.105L660.079 346.968L649.977 353.769L619.552 372.668L604.614 383.765L598.429 389.719L593.664 395.971L590.942 401.793L589.999 407.425L591.037 413.761L592.482 417.03L594.799 420.645L601.187 427.386L610.369 434.223L629.057 444.83L686.885 473.311L702.564 481.961L716.701 490.432M716.689 268.972L705.406 288.086L695.889 302.392L686.145 314.765L676.27 325.133L664.867 334.929L651.374 344.367L639.051 351.669L605.02 370.055L594.668 376.463L586.524 382.309L579.049 388.991L574.094 395.1L570.941 401.495L569.914 407.831L570.297 411.386L571.323 414.811L573.294 418.629L575.825 422.089L582.548 428.508L592.626 435.333L602.071 440.439L614.394 446.214L658.67 464.744L678.933 473.812L699.423 484.085L716.881 493.964M717 303.549L703.674 323.916L691.089 339.511L678.467 352.206L653.75 373.981L642.896 385.387L638.645 391.138L635.529 396.77L633.833 401.483L633.009 407.139L633.964 414.202L636.842 420.74L641.463 427.112L647.983 433.746L656.246 440.606L666.67 448.195L716.606 481.746M716.749 293.205L707.71 307.821L700.761 317.807L692.76 327.913L684.533 336.886L676.748 344.283L669.082 350.75L636.52 375.365L628.985 381.987L623.481 387.607L619.074 393.25L616.256 398.226L614.62 402.951L614.059 407.926L615.17 414.238L618.406 420.609L623.421 426.67L631.493 433.746L647.505 444.58L692.068 470.543L716.94 486.137M716.952 326.995L703.889 345.811L684.235 369.519L675.411 381.677L671.47 388.49L668.604 395.052L666.765 401.96L666.276 407.664L666.909 414.059L668.736 420.227L672.246 427.267L677.154 434.319L683.244 441.358L691.375 449.436L716.845 471.426M716.666 316.054L707.985 329.202L697.967 342.267L689.907 351.395L670.455 371.44L660.879 383.025L656.58 389.611L653.428 396.03L651.577 402.199L651.028 407.89L651.84 414.262L654.335 420.955L658.467 427.661L664.461 434.772L672.187 442.229L682.061 450.522L716.857 476.938M716.618 349.844L703.638 369.59L696.51 382.822L693.548 390.112L691.733 396.293L690.36 406.924L690.635 412.639L691.626 418.283L693.799 425.096L696.486 430.954L704.152 443.029L716.594 457.824M716.916 372.144L712.928 381.331L709.621 391.544L707.889 400.684L707.471 407.819L708.044 415.67L709.883 424.057L712.558 431.455L716.69 439.795" stroke="white" stroke-opacity="0.1"/>
</svg>
