<svg id="Layer_1" data-name="Layer 1" xmlns="http://www.w3.org/2000/svg" xmlns:xlink="http://www.w3.org/1999/xlink" viewBox="0 0 672.09 672.09"><defs><style>.cls-1{fill:url(#linear-gradient);}.cls-2{fill:url(#linear-gradient-2);}.cls-3{fill:url(#linear-gradient-3);}.cls-4{fill:url(#linear-gradient-4);}.cls-5{fill:url(#linear-gradient-5);}.cls-6{fill:url(#linear-gradient-6);}.cls-7{fill:url(#linear-gradient-7);}.cls-8{fill:url(#linear-gradient-8);}.cls-9{fill:url(#linear-gradient-9);}.cls-10{fill:url(#linear-gradient-10);}.cls-11{fill:url(#linear-gradient-11);}.cls-12{fill:url(#linear-gradient-12);}.cls-13{fill:url(#linear-gradient-13);}.cls-14{fill:#604625;}</style><linearGradient id="linear-gradient" x1="348.82" y1="429.73" x2="348.82" y2="597.98" gradientUnits="userSpaceOnUse"><stop offset="0" stop-color="#966e14"/><stop offset="0.19" stop-color="#9e761d"/><stop offset="0.49" stop-color="#b58d34"/><stop offset="0.87" stop-color="#d9b15b"/><stop offset="1" stop-color="#e7bf69"/></linearGradient><linearGradient id="linear-gradient-2" x1="348.82" y1="505.7" x2="348.82" y2="85.51" gradientUnits="userSpaceOnUse"><stop offset="0" stop-color="#966e14"/><stop offset="0.5" stop-color="#e7bf69"/><stop offset="1" stop-color="#ffec95"/></linearGradient><linearGradient id="linear-gradient-3" x1="489.11" y1="447.2" x2="261.81" y2="188.77" gradientUnits="userSpaceOnUse"><stop offset="0" stop-color="#472411"/><stop offset="1" stop-color="#25150d"/></linearGradient><linearGradient id="linear-gradient-4" x1="487.85" y1="446.55" x2="260.54" y2="188.12" xlink:href="#linear-gradient-2"/><linearGradient id="linear-gradient-5" x1="521.04" y1="484.29" x2="342.86" y2="281.71" gradientTransform="translate(306.16 -162.16) rotate(45)" gradientUnits="userSpaceOnUse"><stop offset="0" stop-color="#472411"/><stop offset="0.38" stop-color="#442311"/><stop offset="0.68" stop-color="#3a1e0f"/><stop offset="0.94" stop-color="#29170e"/><stop offset="1" stop-color="#25150d"/></linearGradient><linearGradient id="linear-gradient-6" x1="384.21" y1="323.91" x2="250.59" y2="190.29" gradientUnits="userSpaceOnUse"><stop offset="0" stop-color="#472411"/><stop offset="0.07" stop-color="#412210"/><stop offset="0.32" stop-color="#311a0e"/><stop offset="0.61" stop-color="#28160d"/><stop offset="1" stop-color="#25150d"/></linearGradient><linearGradient id="linear-gradient-7" x1="384.21" y1="323.91" x2="250.59" y2="190.29" xlink:href="#linear-gradient-6"/><linearGradient id="linear-gradient-8" x1="348.82" y1="460.36" x2="348.82" y2="127.88" gradientUnits="userSpaceOnUse"><stop offset="0" stop-color="#966e14"/><stop offset="0.07" stop-color="#9e761c"/><stop offset="0.48" stop-color="#c59d46"/><stop offset="0.81" stop-color="#deb65f"/><stop offset="1" stop-color="#e7bf69"/></linearGradient><linearGradient id="linear-gradient-9" x1="348.82" y1="440.14" x2="348.82" y2="146.77" xlink:href="#linear-gradient-8"/><linearGradient id="linear-gradient-10" x1="261.25" y1="200.92" x2="387.73" y2="327.4" xlink:href="#linear-gradient-8"/><linearGradient id="linear-gradient-11" x1="244.64" y1="191.62" x2="277.65" y2="222.75" gradientUnits="userSpaceOnUse"><stop offset="0" stop-color="#25150d"/><stop offset="0.39" stop-color="#28160d"/><stop offset="0.68" stop-color="#311a0e"/><stop offset="0.93" stop-color="#412210"/><stop offset="1" stop-color="#472411"/></linearGradient><linearGradient id="linear-gradient-12" x1="384.23" y1="323.9" x2="250.61" y2="190.28" xlink:href="#linear-gradient-6"/><linearGradient id="linear-gradient-13" x1="456.02" y1="425.47" x2="247.34" y2="158.79" xlink:href="#linear-gradient-8"/></defs><path class="cls-1" d="M441.36,633.17l-85.51-65.09a8.16,8.16,0,0,0-9.75-.09l-90,65.68a8.15,8.15,0,0,1-13-6.58V378.92a8.15,8.15,0,0,1,8.15-8.16h195a8.15,8.15,0,0,1,8.15,8.16V626.69A8.15,8.15,0,0,1,441.36,633.17Z"/><path class="cls-2" d="M359.48,70.44,379.7,93.56l26.37-15.74a14.15,14.15,0,0,1,20.27,6.58l12.08,28.24,29.95-6.82a14.16,14.16,0,0,1,17.25,12.53l2.76,30.59L519,151.7A14.17,14.17,0,0,1,531.5,169l-6.83,29.94L552.91,211a14.17,14.17,0,0,1,6.59,20.28l-15.75,26.37,23.13,20.21a14.16,14.16,0,0,1,0,21.32l-23.13,20.22,15.75,26.37A14.16,14.16,0,0,1,552.91,366l-28.24,12.08,6.83,30A14.17,14.17,0,0,1,519,425.29l-30.59,2.76-2.76,30.59a14.17,14.17,0,0,1-17.25,12.53l-29.95-6.83-12.08,28.24a14.16,14.16,0,0,1-20.27,6.59L379.7,483.42l-20.22,23.13a14.16,14.16,0,0,1-21.32,0L318,483.42l-26.37,15.75a14.17,14.17,0,0,1-20.28-6.59l-12.08-28.24-29.94,6.83A14.17,14.17,0,0,1,212,458.64l-2.76-30.59-30.59-2.76A14.16,14.16,0,0,1,166.15,408l6.82-30L144.73,366a14.16,14.16,0,0,1-6.59-20.27l15.75-26.37-23.12-20.22a14.15,14.15,0,0,1,0-21.32l23.12-20.21-15.75-26.37A14.17,14.17,0,0,1,144.73,211L173,198.89,166.15,169a14.15,14.15,0,0,1,12.53-17.25l30.59-2.76L212,118.35a14.15,14.15,0,0,1,17.25-12.53l29.94,6.82L271.3,84.4a14.16,14.16,0,0,1,20.28-6.58L318,93.56l20.21-23.12A14.15,14.15,0,0,1,359.48,70.44Z"/><path class="cls-3" d="M360.75,71.09,381,94.21l26.37-15.75a14.17,14.17,0,0,1,20.28,6.59l12.08,28.24,29.94-6.83A14.17,14.17,0,0,1,486.88,119l2.76,30.59,30.59,2.76a14.17,14.17,0,0,1,12.54,17.25l-6.83,29.94,28.24,12.08a14.17,14.17,0,0,1,6.59,20.28L545,258.27l23.12,20.21a14.15,14.15,0,0,1,0,21.32L545,320l15.75,26.37a14.17,14.17,0,0,1-6.59,20.28l-28.24,12.08,6.83,29.95a14.16,14.16,0,0,1-12.54,17.24l-30.59,2.76-2.76,30.59a14.17,14.17,0,0,1-17.25,12.54L439.69,465l-12.08,28.24a14.17,14.17,0,0,1-20.28,6.59L381,484.07,360.75,507.2a14.16,14.16,0,0,1-21.32,0l-20.21-23.13-26.37,15.75a14.17,14.17,0,0,1-20.28-6.59L260.49,465l-30,6.83a14.16,14.16,0,0,1-17.24-12.54l-2.76-30.59L180,425.93a14.16,14.16,0,0,1-12.54-17.24l6.83-29.95L146,366.66a14.17,14.17,0,0,1-6.59-20.28L155.16,320,132,299.8a14.16,14.16,0,0,1,0-21.32l23.13-20.21L139.41,231.9A14.17,14.17,0,0,1,146,211.62l28.24-12.08-6.83-29.94A14.17,14.17,0,0,1,180,152.35l30.59-2.76L213.3,119a14.16,14.16,0,0,1,17.24-12.54l30,6.83,12.08-28.24a14.17,14.17,0,0,1,20.28-6.59l26.37,15.75,20.21-23.12A14.15,14.15,0,0,1,360.75,71.09Z"/><path class="cls-4" d="M359.48,70.44,379.7,93.56l26.37-15.74a14.15,14.15,0,0,1,20.27,6.58l12.08,28.24,29.95-6.82a14.16,14.16,0,0,1,17.25,12.53l2.76,30.59L519,151.7A14.17,14.17,0,0,1,531.5,169l-6.83,29.94L552.91,211a14.17,14.17,0,0,1,6.59,20.28l-15.75,26.37,23.13,20.21a14.16,14.16,0,0,1,0,21.32l-23.13,20.22,15.75,26.37A14.16,14.16,0,0,1,552.91,366l-28.24,12.08,6.83,30A14.17,14.17,0,0,1,519,425.29l-30.59,2.76-2.76,30.59a14.17,14.17,0,0,1-17.25,12.53l-29.95-6.83-12.08,28.24a14.16,14.16,0,0,1-20.27,6.59L379.7,483.42l-20.22,23.13a14.16,14.16,0,0,1-21.32,0L318,483.42l-26.37,15.75a14.17,14.17,0,0,1-20.28-6.59l-12.08-28.24-29.94,6.83A14.17,14.17,0,0,1,212,458.64l-2.76-30.59-30.59-2.76A14.16,14.16,0,0,1,166.15,408l6.82-30L144.73,366a14.16,14.16,0,0,1-6.59-20.27l15.75-26.37-23.12-20.22a14.15,14.15,0,0,1,0-21.32l23.12-20.21-15.75-26.37A14.17,14.17,0,0,1,144.73,211L173,198.89,166.15,169a14.15,14.15,0,0,1,12.53-17.25l30.59-2.76L212,118.35a14.15,14.15,0,0,1,17.25-12.53l29.94,6.82L271.3,84.4a14.16,14.16,0,0,1,20.28-6.58L318,93.56l20.21-23.12A14.15,14.15,0,0,1,359.48,70.44Z"/><circle class="cls-5" cx="348.82" cy="288.49" r="174.02" transform="translate(-101.83 331.15) rotate(-45)"/><path class="cls-6" d="M349.44,112.77A176.37,176.37,0,1,0,525.81,289.14,176.37,176.37,0,0,0,349.44,112.77Zm0,346.14A169.77,169.77,0,1,1,519.21,289.14,169.77,169.77,0,0,1,349.44,458.91Z"/><path class="cls-7" d="M349.44,133.52A155.62,155.62,0,1,0,505.06,289.14,155.62,155.62,0,0,0,349.44,133.52Zm0,305.42a149.8,149.8,0,1,1,149.8-149.8A149.8,149.8,0,0,1,349.44,438.94Z"/><path class="cls-8" d="M348.82,112.12A176.38,176.38,0,1,0,525.2,288.49,176.37,176.37,0,0,0,348.82,112.12Zm0,346.14A169.77,169.77,0,1,1,518.59,288.49,169.77,169.77,0,0,1,348.82,458.26Z"/><path class="cls-9" d="M348.82,132.87A155.63,155.63,0,1,0,504.45,288.49,155.62,155.62,0,0,0,348.82,132.87Zm0,305.42a149.8,149.8,0,1,1,149.8-149.8A149.8,149.8,0,0,1,348.82,438.29Z"/><path class="cls-10" d="M348.82,154.09a134.4,134.4,0,1,0,134.4,134.4A134.4,134.4,0,0,0,348.82,154.09Z"/><path class="cls-11" d="M216.22,289.67A134.42,134.42,0,0,1,422.93,176.36,134.41,134.41,0,1,0,276.51,401.8,134.26,134.26,0,0,1,216.22,289.67Z"/><path class="cls-12" d="M349.35,455.87h0Zm-3.54-3.53a3.54,3.54,0,0,1,3.54-3.54h0a3.56,3.56,0,0,1,3.55,3.54h0a3.54,3.54,0,0,1-3.54,3.53h0A3.55,3.55,0,0,1,345.81,452.34ZM331.92,455a3.53,3.53,0,0,1-3.16-3.87h0a3.53,3.53,0,0,1,3.88-3.16h0a3.53,3.53,0,0,1,3.15,3.88h0a3.52,3.52,0,0,1-3.5,3.17h0A2.17,2.17,0,0,1,331.92,455Zm31-3.17a3.54,3.54,0,0,1,3.14-3.89h0a3.55,3.55,0,0,1,3.89,3.16h0a3.56,3.56,0,0,1-3.16,3.89h-.37A3.52,3.52,0,0,1,362.92,451.81Zm-48.26.47a3.53,3.53,0,0,1-2.73-4.19h0a3.53,3.53,0,0,1,4.19-2.73h0a3.54,3.54,0,0,1,2.73,4.19h0a3.54,3.54,0,0,1-3.46,2.8h0A3,3,0,0,1,314.66,452.28Zm65.2-2.76a3.54,3.54,0,0,1,2.72-4.2h0a3.55,3.55,0,0,1,4.2,2.73h0a3.54,3.54,0,0,1-2.73,4.19h0a3.71,3.71,0,0,1-.73.08h0A3.54,3.54,0,0,1,379.86,449.52Zm-82.09-1.74a3.54,3.54,0,0,1-2.28-4.45h0a3.54,3.54,0,0,1,4.45-2.28h0a3.53,3.53,0,0,1,2.28,4.45h0a3.53,3.53,0,0,1-3.36,2.45h0A3.44,3.44,0,0,1,297.77,447.78Zm98.7-2.33a3.51,3.51,0,0,1,2.27-4.44v0a3.55,3.55,0,0,1,4.45,2.28h0a3.54,3.54,0,0,1-2.26,4.46h0a3.86,3.86,0,0,1-1.09.17h0A3.53,3.53,0,0,1,396.47,445.45Zm-115-3.92a3.54,3.54,0,0,1-1.79-4.67h0a3.54,3.54,0,0,1,4.67-1.8h0a3.54,3.54,0,0,1,1.79,4.67h0a3.54,3.54,0,0,1-3.24,2.1h0A3.47,3.47,0,0,1,281.45,441.53Zm131.11-1.87a3.54,3.54,0,0,1,1.8-4.67h0a3.52,3.52,0,0,1,4.66,1.8h0a3.54,3.54,0,0,1-1.78,4.67h0a3.65,3.65,0,0,1-1.44.3h0A3.54,3.54,0,0,1,412.56,439.66Zm-146.68-6.07a3.54,3.54,0,0,1-1.29-4.84h0a3.53,3.53,0,0,1,4.82-1.28h0a3.54,3.54,0,0,1,1.31,4.83h0a3.56,3.56,0,0,1-3.07,1.77h0A3.44,3.44,0,0,1,265.88,433.59ZM428,432.22a3.55,3.55,0,0,1,1.3-4.84h0a3.54,3.54,0,0,1,4.83,1.29h0a3.54,3.54,0,0,1-1.29,4.84h0A3.51,3.51,0,0,1,431,434h0A3.59,3.59,0,0,1,428,432.22Zm-176.72-8.15a3.55,3.55,0,0,1-.79-4.94h0a3.52,3.52,0,0,1,4.94-.77h0a3.52,3.52,0,0,1,.79,4.93h0a3.54,3.54,0,0,1-2.87,1.46h0A3.56,3.56,0,0,1,251.23,424.07Zm191.27-.88a3.52,3.52,0,0,1,.76-4.93h0a3.54,3.54,0,0,1,4.95.77h0a3.52,3.52,0,0,1-.78,4.94h0a3.43,3.43,0,0,1-2.08.68h0A3.52,3.52,0,0,1,442.5,423.19ZM237.65,413.08a3.55,3.55,0,0,1-.27-5h0a3.54,3.54,0,0,1,5-.26h0a3.53,3.53,0,0,1,.27,5h0A3.54,3.54,0,0,1,240,414h0A3.51,3.51,0,0,1,237.65,413.08ZM456,412.71a3.51,3.51,0,0,1,.25-5h0a3.54,3.54,0,0,1,5,.26h0a3.53,3.53,0,0,1-.26,5h0a3.46,3.46,0,0,1-2.38.92h0A3.47,3.47,0,0,1,456,412.71Zm-230.72-12a3.55,3.55,0,0,1,.25-5h0a3.55,3.55,0,0,1,5,.27h0a3.53,3.53,0,0,1-.26,5h0a3.58,3.58,0,0,1-2.36.9h0A3.51,3.51,0,0,1,225.29,400.74Zm243.07.14a3.53,3.53,0,0,1-.27-5v0a3.55,3.55,0,0,1,5-.25h0a3.53,3.53,0,0,1,.27,5h0a3.55,3.55,0,0,1-2.63,1.18h0A3.46,3.46,0,0,1,468.36,400.88ZM214.28,387.17h0a3.51,3.51,0,0,1,.77-4.93h0A3.54,3.54,0,0,1,220,383h0a3.55,3.55,0,0,1-.78,4.94h0a3.54,3.54,0,0,1-2.08.68h0A3.52,3.52,0,0,1,214.28,387.17Zm265.13.66a3.53,3.53,0,0,1-.78-4.94h0a3.51,3.51,0,0,1,4.94-.78h0a3.53,3.53,0,0,1,.77,4.94h0a3.53,3.53,0,0,1-2.85,1.45h0A3.55,3.55,0,0,1,479.41,387.83ZM204.73,372.54a3.55,3.55,0,0,1,1.29-4.83h0a3.54,3.54,0,0,1,4.84,1.28h0a3.56,3.56,0,0,1-1.29,4.84h0a3.43,3.43,0,0,1-1.77.47h0A3.55,3.55,0,0,1,204.73,372.54ZM489,373.69a3.56,3.56,0,0,1-1.29-4.84h0a3.55,3.55,0,0,1,4.83-1.29h0a3.53,3.53,0,0,1,1.3,4.83h0a3.55,3.55,0,0,1-3.07,1.77h0A3.66,3.66,0,0,1,489,373.69ZM196.78,357h0a3.57,3.57,0,0,1,1.78-4.69h0a3.54,3.54,0,0,1,4.67,1.8h0a3.53,3.53,0,0,1-1.78,4.67h0a3.49,3.49,0,0,1-1.44.31h0A3.54,3.54,0,0,1,196.78,357Zm300.37,1.62a3.53,3.53,0,0,1-1.8-4.66h0a3.55,3.55,0,0,1,4.68-1.8h0a3.53,3.53,0,0,1,1.79,4.67h0a3.56,3.56,0,0,1-3.23,2.11h0A3.38,3.38,0,0,1,497.15,358.62ZM190.5,340.68a3.53,3.53,0,0,1,2.26-4.45h0a3.54,3.54,0,0,1,4.47,2.26h0A3.55,3.55,0,0,1,195,343h0a3.49,3.49,0,0,1-1.09.17h0A3.54,3.54,0,0,1,190.5,340.68Zm313.13,2.11a3.55,3.55,0,0,1-2.28-4.45h0a3.53,3.53,0,0,1,4.46-2.28h0a3.54,3.54,0,0,1,2.27,4.45h0a3.52,3.52,0,0,1-3.36,2.45h0A3.49,3.49,0,0,1,503.63,342.79ZM186,323.81a3.53,3.53,0,0,1,2.73-4.19h0a3.53,3.53,0,0,1,4.19,2.71h0a3.54,3.54,0,0,1-2.73,4.21h0a3.57,3.57,0,0,1-.74.07h0A3.54,3.54,0,0,1,186,323.81Zm322.44,2.56a3.54,3.54,0,0,1-2.73-4.2h0a3.55,3.55,0,0,1,4.19-2.74h0a3.58,3.58,0,0,1,2.73,4.21h0a3.57,3.57,0,0,1-3.47,2.8h0A4.39,4.39,0,0,1,508.41,326.37ZM183.24,306.56a3.53,3.53,0,0,1,3.16-3.89h0a3.53,3.53,0,0,1,3.87,3.16h0a3.51,3.51,0,0,1-3.14,3.87h0l-.37,0h0A3.55,3.55,0,0,1,183.24,306.56Zm328.18,3a3.55,3.55,0,0,1-3.15-3.89h0a3.53,3.53,0,0,1,3.87-3.15h0a3.54,3.54,0,0,1,3.16,3.89h0a3.54,3.54,0,0,1-3.51,3.17h0A2.3,2.3,0,0,1,511.42,309.53Zm-329.1-20.41a3.54,3.54,0,0,1,3.54-3.54h0a3.54,3.54,0,0,1,3.54,3.54h0a3.54,3.54,0,0,1-3.54,3.53h0A3.54,3.54,0,0,1,182.32,289.12Zm326.81-.19v-.15h0v-.2h0a3.54,3.54,0,0,1,3.52-3.55h0a3.54,3.54,0,0,1,3.55,3.54h0v.18h0v.18h0a3.54,3.54,0,0,1-3.53,3.54h0A3.55,3.55,0,0,1,509.13,288.93ZM186.35,275.56a3.55,3.55,0,0,1-3.15-3.89h0a3.54,3.54,0,0,1,3.88-3.15h0a3.53,3.53,0,0,1,3.16,3.87h0a3.54,3.54,0,0,1-3.52,3.19h0Zm321.88-3.69a3.54,3.54,0,0,1,3.15-3.89h0a3.54,3.54,0,0,1,3.89,3.14h0a3.53,3.53,0,0,1-3.15,3.89h0a2.22,2.22,0,0,1-.37,0h0A3.54,3.54,0,0,1,508.23,271.87ZM188.63,258.6a3.53,3.53,0,0,1-2.73-4.19h0a3.55,3.55,0,0,1,4.19-2.73h0a3.54,3.54,0,0,1,2.73,4.19h0a3.55,3.55,0,0,1-3.47,2.82h0A3,3,0,0,1,188.63,258.6Zm317-3.25a3.52,3.52,0,0,1,2.72-4.19h0a3.53,3.53,0,0,1,4.2,2.72h0a3.53,3.53,0,0,1-2.71,4.2h0a4.86,4.86,0,0,1-.74.07h0A3.54,3.54,0,0,1,505.59,255.35ZM192.66,242a3.54,3.54,0,0,1-2.27-4.46h0a3.52,3.52,0,0,1,4.45-2.26h0a3.52,3.52,0,0,1,2.28,4.44h0a3.54,3.54,0,0,1-3.37,2.45h0A3.53,3.53,0,0,1,192.66,242Zm308.59-2.78h0a3.51,3.51,0,0,1,2.26-4.45h0A3.52,3.52,0,0,1,508,237h0a3.54,3.54,0,0,1-2.26,4.46h0a3.89,3.89,0,0,1-1.11.17h0A3.53,3.53,0,0,1,501.25,239.2ZM198.44,225.88a3.52,3.52,0,0,1-1.8-4.67h0a3.54,3.54,0,0,1,4.67-1.8h0a3.54,3.54,0,0,1,1.78,4.67h0a3.5,3.5,0,0,1-3.22,2.09h0A3.52,3.52,0,0,1,198.44,225.88Zm296.77-2.28a3.54,3.54,0,0,1,1.78-4.67h0a3.53,3.53,0,0,1,4.68,1.77h0a3.54,3.54,0,0,1-1.78,4.68h0a3.49,3.49,0,0,1-1.44.31h0A3.53,3.53,0,0,1,495.21,223.6ZM205.85,210.46a3.55,3.55,0,0,1-1.29-4.83h0a3.53,3.53,0,0,1,4.83-1.3h0a3.55,3.55,0,0,1,1.3,4.84h0a3.54,3.54,0,0,1-3.07,1.77h0A3.6,3.6,0,0,1,205.85,210.46Zm281.73-1.74a3.54,3.54,0,0,1,1.28-4.84h0a3.55,3.55,0,0,1,4.84,1.28h0a3.55,3.55,0,0,1-1.28,4.84h0a3.49,3.49,0,0,1-1.78.49h0A3.53,3.53,0,0,1,487.58,208.72ZM214.86,195.91a3.52,3.52,0,0,1-.79-4.93h0a3.54,3.54,0,0,1,4.94-.8h0a3.56,3.56,0,0,1,.79,4.95h0a3.54,3.54,0,0,1-2.87,1.46h0A3.47,3.47,0,0,1,214.86,195.91Zm263.57-1.2a3.54,3.54,0,0,1,.76-4.94h0a3.58,3.58,0,0,1,5,.77h0a3.56,3.56,0,0,1-.78,5h0a3.56,3.56,0,0,1-2.08.68h0A3.54,3.54,0,0,1,478.43,194.71ZM225.32,182.39a3.54,3.54,0,0,1-.26-5h0a3.54,3.54,0,0,1,5-.27h0a3.55,3.55,0,0,1,.26,5h0a3.53,3.53,0,0,1-2.64,1.17h0A3.51,3.51,0,0,1,225.32,182.39Zm242.54-.65a3.55,3.55,0,0,1,.26-5h0a3.52,3.52,0,0,1,5,.26h0a3.53,3.53,0,0,1-.24,5h0a3.55,3.55,0,0,1-2.38.91h0A3.53,3.53,0,0,1,467.86,181.74ZM237.14,170a3.54,3.54,0,0,1,.26-5h0a3.55,3.55,0,0,1,5,.26h0a3.55,3.55,0,0,1-.25,5h0a3.46,3.46,0,0,1-2.38.92h0A3.53,3.53,0,0,1,237.14,170Zm218.88-.1a3.52,3.52,0,0,1-.27-5h0a3.54,3.54,0,0,1,5-.27h0a3.54,3.54,0,0,1,.26,5h0a3.53,3.53,0,0,1-2.64,1.18h0A3.48,3.48,0,0,1,456,169.92Zm-205.85-11A3.53,3.53,0,0,1,251,154h0a3.53,3.53,0,0,1,4.94.76h0a3.53,3.53,0,0,1-.78,4.94h0a3.43,3.43,0,0,1-2.08.68h0A3.54,3.54,0,0,1,250.17,158.94Zm192.82.47a3.55,3.55,0,0,1-.78-4.94h0a3.55,3.55,0,0,1,4.94-.79h0a3.55,3.55,0,0,1,.79,4.95h0a3.55,3.55,0,0,1-2.87,1.46h0A3.61,3.61,0,0,1,443,159.41Zm-178.7-10.13a3.52,3.52,0,0,1,1.29-4.82h0a3.52,3.52,0,0,1,4.82,1.27h0a3.54,3.54,0,0,1-1.27,4.84h0a3.58,3.58,0,0,1-1.78.48h0A3.53,3.53,0,0,1,264.29,149.28Zm164.67,1a3.52,3.52,0,0,1-1.3-4.82h0a3.52,3.52,0,0,1,4.82-1.3h0a3.52,3.52,0,0,1,1.3,4.82h0a3.54,3.54,0,0,1-3.07,1.77h0A3.49,3.49,0,0,1,429,150.31Zm-149.63-9.15a3.54,3.54,0,0,1,1.78-4.67h0a3.55,3.55,0,0,1,4.69,1.79h0a3.53,3.53,0,0,1-1.78,4.66h0a3.43,3.43,0,0,1-1.45.32h0A3.55,3.55,0,0,1,279.33,141.16ZM414,142.73a3.54,3.54,0,0,1-1.81-4.67h0a3.54,3.54,0,0,1,4.67-1.79h0a3.54,3.54,0,0,1,1.8,4.67h0a3.53,3.53,0,0,1-3.23,2.1h0A3.45,3.45,0,0,1,414,142.73Zm-118.88-8.08a3.52,3.52,0,0,1,2.27-4.45h0a3.53,3.53,0,0,1,4.45,2.26h0a3.53,3.53,0,0,1-2.26,4.46h0a3.57,3.57,0,0,1-1.1.18h0A3.53,3.53,0,0,1,295.16,134.65Zm103.25,2.11a3.53,3.53,0,0,1-2.28-4.46h0a3.54,3.54,0,0,1,4.45-2.27h0a3.52,3.52,0,0,1,2.27,4.45h0a3.52,3.52,0,0,1-3.36,2.45h0A3.69,3.69,0,0,1,398.41,136.76Zm-86.84-6.9a3.54,3.54,0,0,1,2.72-4.2h0a3.55,3.55,0,0,1,4.2,2.73h0a3.5,3.5,0,0,1-2.71,4.18h0a3.33,3.33,0,0,1-.75.09h0A3.54,3.54,0,0,1,311.57,129.86Zm70.67,2.62a3.55,3.55,0,0,1-2.74-4.19h0a3.55,3.55,0,0,1,4.18-2.75h0a3.54,3.54,0,0,1,2.75,4.19h0a3.56,3.56,0,0,1-3.47,2.82h0A4.39,4.39,0,0,1,382.24,132.48ZM328.4,126.8a3.52,3.52,0,0,1,3.15-3.87h0a3.53,3.53,0,0,1,3.89,3.14h0a3.54,3.54,0,0,1-3.15,3.89h-.37A3.53,3.53,0,0,1,328.4,126.8Zm37.3,3.1a3.54,3.54,0,0,1-3.15-3.88h0a3.54,3.54,0,0,1,3.87-3.15h0a3.52,3.52,0,0,1,3.17,3.87h0a3.53,3.53,0,0,1-3.52,3.17h-.37ZM349,129.06Zm-3.53-3.53A3.53,3.53,0,0,1,349,122h0a3.55,3.55,0,0,1,3.54,3.54h0a3.53,3.53,0,0,1-3.54,3.53h0A3.52,3.52,0,0,1,345.46,125.53Z"/><path class="cls-13" d="M348.91,455.43h0Zm-3.54-3.53a3.53,3.53,0,0,1,3.54-3.54h0a3.56,3.56,0,0,1,3.55,3.54h0a3.54,3.54,0,0,1-3.54,3.53h0A3.54,3.54,0,0,1,345.37,451.9Zm-13.89,2.64a3.53,3.53,0,0,1-3.16-3.88h0a3.53,3.53,0,0,1,3.88-3.15h0a3.53,3.53,0,0,1,3.15,3.87h0a3.52,3.52,0,0,1-3.51,3.17h-.36Zm31-3.17a3.54,3.54,0,0,1,3.14-3.89h0a3.54,3.54,0,0,1,3.89,3.16h0a3.56,3.56,0,0,1-3.15,3.89H366A3.55,3.55,0,0,1,362.47,451.37Zm-48.25.47a3.53,3.53,0,0,1-2.73-4.19h0a3.52,3.52,0,0,1,4.18-2.73h0a3.53,3.53,0,0,1,2.73,4.19h0a3.52,3.52,0,0,1-3.45,2.8h0A3,3,0,0,1,314.22,451.84Zm65.2-2.76a3.54,3.54,0,0,1,2.72-4.2h0a3.55,3.55,0,0,1,4.2,2.73h0a3.54,3.54,0,0,1-2.73,4.19h0a3.81,3.81,0,0,1-.74.08h0A3.54,3.54,0,0,1,379.42,449.08Zm-82.1-1.74a3.55,3.55,0,0,1-2.27-4.46h0a3.54,3.54,0,0,1,4.45-2.27h0a3.54,3.54,0,0,1,2.28,4.45h0a3.53,3.53,0,0,1-3.37,2.45h0A3.86,3.86,0,0,1,297.32,447.34ZM396,445a3.52,3.52,0,0,1,2.27-4.45h0a3.54,3.54,0,0,1,4.45,2.28h0a3.53,3.53,0,0,1-2.26,4.45h0a3.53,3.53,0,0,1-1.09.17h0A3.52,3.52,0,0,1,396,445Zm-115-3.92a3.54,3.54,0,0,1-1.79-4.67h0a3.53,3.53,0,0,1,4.66-1.8h0a3.54,3.54,0,0,1,1.8,4.67h0a3.53,3.53,0,0,1-3.24,2.09h0A3.45,3.45,0,0,1,281,441.09Zm131.11-1.87a3.54,3.54,0,0,1,1.79-4.67h0a3.53,3.53,0,0,1,4.67,1.8h0A3.55,3.55,0,0,1,416.8,441h0a3.86,3.86,0,0,1-1.44.29h0A3.55,3.55,0,0,1,412.12,439.22Zm-146.69-6.07a3.55,3.55,0,0,1-1.28-4.84h0A3.54,3.54,0,0,1,269,427h0a3.54,3.54,0,0,1,1.3,4.84h0a3.56,3.56,0,0,1-3.07,1.77h0A3.49,3.49,0,0,1,265.43,433.15Zm162.08-1.37a3.53,3.53,0,0,1,1.3-4.84h0a3.54,3.54,0,0,1,4.83,1.29h0a3.55,3.55,0,0,1-1.29,4.84h0a3.51,3.51,0,0,1-1.77.48h0A3.57,3.57,0,0,1,427.51,431.78Zm-176.72-8.15a3.54,3.54,0,0,1-.79-4.94h0a3.53,3.53,0,0,1,4.94-.78h0a3.54,3.54,0,0,1,.79,4.94h0a3.54,3.54,0,0,1-2.87,1.46h0A3.56,3.56,0,0,1,250.79,423.63Zm191.26-.88a3.53,3.53,0,0,1,.77-4.94h0a3.56,3.56,0,0,1,4.95.78h0a3.53,3.53,0,0,1-.78,4.94h0a3.47,3.47,0,0,1-2.08.68h0A3.55,3.55,0,0,1,442.05,422.75ZM237.21,412.64a3.54,3.54,0,0,1-.27-5h0a3.54,3.54,0,0,1,5-.27h0a3.55,3.55,0,0,1,.27,5h0a3.55,3.55,0,0,1-2.64,1.17h0A3.54,3.54,0,0,1,237.21,412.64Zm218.35-.37a3.53,3.53,0,0,1,.26-5h0a3.54,3.54,0,0,1,5,.27h0a3.52,3.52,0,0,1-.25,5h0a3.46,3.46,0,0,1-2.38.92h0A3.51,3.51,0,0,1,455.56,412.27Zm-230.71-12a3.55,3.55,0,0,1,.25-5h0a3.53,3.53,0,0,1,5,.27h0a3.51,3.51,0,0,1-.25,5h0a3.54,3.54,0,0,1-2.36.91h0A3.54,3.54,0,0,1,224.85,400.3Zm243.07.14a3.53,3.53,0,0,1-.27-5v0a3.55,3.55,0,0,1,5-.25h0a3.53,3.53,0,0,1,.27,5h0a3.55,3.55,0,0,1-2.63,1.18h0A3.46,3.46,0,0,1,467.92,400.44ZM213.84,386.73h0a3.53,3.53,0,0,1,.76-4.94h0a3.54,3.54,0,0,1,5,.78h0a3.54,3.54,0,0,1-.77,4.94h0a3.61,3.61,0,0,1-2.08.68h0A3.52,3.52,0,0,1,213.84,386.73Zm265.13.65a3.52,3.52,0,0,1-.78-4.93h0a3.5,3.5,0,0,1,4.93-.78h0a3.51,3.51,0,0,1,.78,4.93h0a3.54,3.54,0,0,1-2.86,1.46h0A3.53,3.53,0,0,1,479,387.38ZM204.29,372.1a3.55,3.55,0,0,1,1.29-4.84h0a3.53,3.53,0,0,1,4.83,1.29h0a3.55,3.55,0,0,1-1.28,4.84h0a3.46,3.46,0,0,1-1.77.47h0A3.53,3.53,0,0,1,204.29,372.1Zm284.31,1.15a3.56,3.56,0,0,1-1.29-4.84h0a3.55,3.55,0,0,1,4.83-1.29h0a3.55,3.55,0,0,1,1.3,4.83h0a3.56,3.56,0,0,1-3.07,1.77h0A3.64,3.64,0,0,1,488.6,373.25Zm-292.26-16.7h0a3.56,3.56,0,0,1,1.78-4.68h0a3.55,3.55,0,0,1,4.67,1.8h0a3.53,3.53,0,0,1-1.78,4.67h0a3.5,3.5,0,0,1-1.45.31h0A3.53,3.53,0,0,1,196.34,356.55Zm300.37,1.63a3.54,3.54,0,0,1-1.8-4.67h0a3.55,3.55,0,0,1,4.68-1.79h0a3.53,3.53,0,0,1,1.78,4.67h0a3.54,3.54,0,0,1-3.22,2.1h0A3.49,3.49,0,0,1,496.71,358.18ZM190.06,340.24a3.53,3.53,0,0,1,2.26-4.45h0a3.54,3.54,0,0,1,4.47,2.26h0a3.55,3.55,0,0,1-2.28,4.47h0a3.7,3.7,0,0,1-1.09.17h0A3.54,3.54,0,0,1,190.06,340.24Zm313.13,2.11a3.55,3.55,0,0,1-2.28-4.46h0a3.53,3.53,0,0,1,4.45-2.27h0a3.53,3.53,0,0,1,2.28,4.45h0a3.53,3.53,0,0,1-3.36,2.45h0A3.75,3.75,0,0,1,503.19,342.35Zm-317.66-19a3.52,3.52,0,0,1,2.73-4.18h0a3.52,3.52,0,0,1,4.19,2.71h0a3.54,3.54,0,0,1-2.73,4.2h0a3,3,0,0,1-.74.08h0A3.53,3.53,0,0,1,185.53,323.36ZM508,325.92a3.53,3.53,0,0,1-2.73-4.2h0a3.53,3.53,0,0,1,4.18-2.73h0a3.57,3.57,0,0,1,2.74,4.21h0a3.57,3.57,0,0,1-3.47,2.8h0A3.53,3.53,0,0,1,508,325.92ZM182.8,306.12a3.53,3.53,0,0,1,3.15-3.89h0a3.53,3.53,0,0,1,3.88,3.15h0a3.52,3.52,0,0,1-3.14,3.88h0l-.37,0h0A3.53,3.53,0,0,1,182.8,306.12Zm328.18,3a3.55,3.55,0,0,1-3.15-3.89h0A3.54,3.54,0,0,1,511.7,302h0a3.56,3.56,0,0,1,3.16,3.89h0a3.54,3.54,0,0,1-3.51,3.17H511Zm-329.1-20.42a3.53,3.53,0,0,1,3.54-3.53h0a3.53,3.53,0,0,1,3.53,3.53h0a3.53,3.53,0,0,1-3.53,3.54h0A3.53,3.53,0,0,1,181.88,288.67Zm326.81-.18v-.15h0v-.2h0a3.54,3.54,0,0,1,3.52-3.55h0a3.55,3.55,0,0,1,3.55,3.53h0v.19h0v.18h0a3.54,3.54,0,0,1-3.53,3.54h0A3.54,3.54,0,0,1,508.69,288.49ZM185.91,275.12a3.55,3.55,0,0,1-3.15-3.89h0a3.53,3.53,0,0,1,3.87-3.15h0A3.52,3.52,0,0,1,189.8,272h0a3.55,3.55,0,0,1-3.52,3.19h0Zm321.87-3.69a3.56,3.56,0,0,1,3.16-3.89h0a3.54,3.54,0,0,1,3.89,3.14h0a3.53,3.53,0,0,1-3.16,3.89h0l-.36,0h0A3.56,3.56,0,0,1,507.78,271.43ZM188.19,258.16a3.53,3.53,0,0,1-2.73-4.19h0a3.53,3.53,0,0,1,4.19-2.73h0a3.55,3.55,0,0,1,2.73,4.19h0a3.55,3.55,0,0,1-3.47,2.81h0A3.53,3.53,0,0,1,188.19,258.16Zm317-3.26a3.51,3.51,0,0,1,2.72-4.18h0a3.53,3.53,0,0,1,4.2,2.71h0a3.54,3.54,0,0,1-2.72,4.2h0a3.71,3.71,0,0,1-.73.08h0A3.55,3.55,0,0,1,505.15,254.9ZM192.22,241.53a3.54,3.54,0,0,1-2.28-4.45h0a3.54,3.54,0,0,1,4.46-2.27h0a3.55,3.55,0,0,1,2.28,4.45h0a3.53,3.53,0,0,1-3.37,2.44h0A3.26,3.26,0,0,1,192.22,241.53Zm308.59-2.77h0a3.51,3.51,0,0,1,2.26-4.45h0a3.52,3.52,0,0,1,4.46,2.26h0a3.54,3.54,0,0,1-2.27,4.46h0a3.77,3.77,0,0,1-1.1.17h0A3.53,3.53,0,0,1,500.81,238.76ZM198,225.44a3.52,3.52,0,0,1-1.79-4.67h0a3.53,3.53,0,0,1,4.67-1.8h0a3.54,3.54,0,0,1,1.78,4.67h0a3.52,3.52,0,0,1-3.23,2.09h0A3.77,3.77,0,0,1,198,225.44Zm296.78-2.28a3.54,3.54,0,0,1,1.78-4.67h0a3.52,3.52,0,0,1,4.68,1.77h0a3.55,3.55,0,0,1-1.78,4.68h0a3.52,3.52,0,0,1-1.44.31h0A3.55,3.55,0,0,1,494.77,223.16ZM205.41,210a3.52,3.52,0,0,1-1.29-4.82h0a3.52,3.52,0,0,1,4.82-1.3h0a3.55,3.55,0,0,1,1.31,4.84h0a3.53,3.53,0,0,1-3.07,1.76h0A3.47,3.47,0,0,1,205.41,210Zm281.73-1.74a3.53,3.53,0,0,1,1.27-4.83h0a3.55,3.55,0,0,1,4.84,1.28h0a3.55,3.55,0,0,1-1.27,4.84h0a3.5,3.5,0,0,1-1.78.48h0A3.51,3.51,0,0,1,487.14,208.27Zm-272.72-12.8a3.54,3.54,0,0,1-.79-4.94h0a3.52,3.52,0,0,1,4.93-.79h0a3.55,3.55,0,0,1,.8,4.95h0a3.56,3.56,0,0,1-2.88,1.46h0A3.51,3.51,0,0,1,214.42,195.47ZM478,194.27a3.54,3.54,0,0,1,.76-4.94h0a3.55,3.55,0,0,1,4.95.76h0a3.56,3.56,0,0,1-.77,5h0a3.59,3.59,0,0,1-2.08.68h0A3.54,3.54,0,0,1,478,194.27ZM224.87,182a3.54,3.54,0,0,1-.25-5h0a3.52,3.52,0,0,1,5-.27h0a3.55,3.55,0,0,1,.27,5h0a3.58,3.58,0,0,1-2.64,1.17h0A3.58,3.58,0,0,1,224.87,182Zm242.55-.66a3.55,3.55,0,0,1,.25-5h0a3.53,3.53,0,0,1,5,.25h0a3.55,3.55,0,0,1-.24,5h0a3.54,3.54,0,0,1-2.38.9h0A3.53,3.53,0,0,1,467.42,181.29ZM236.7,169.58a3.54,3.54,0,0,1,.26-5h0a3.54,3.54,0,0,1,5,.26h0a3.55,3.55,0,0,1-.25,5h0a3.51,3.51,0,0,1-2.38.92h0A3.57,3.57,0,0,1,236.7,169.58Zm218.88-.1a3.51,3.51,0,0,1-.27-5h0a3.53,3.53,0,0,1,5-.27h0a3.54,3.54,0,0,1,.27,5h0a3.54,3.54,0,0,1-2.64,1.18h0A3.46,3.46,0,0,1,455.58,169.48Zm-205.85-11a3.53,3.53,0,0,1,.78-4.93h0a3.52,3.52,0,0,1,4.94.76h0a3.54,3.54,0,0,1-.78,4.94h0a3.5,3.5,0,0,1-2.08.68h0A3.53,3.53,0,0,1,249.73,158.5Zm192.82.47a3.54,3.54,0,0,1-.78-4.94h0a3.54,3.54,0,0,1,4.94-.79h0a3.55,3.55,0,0,1,.79,4.95h0a3.55,3.55,0,0,1-2.87,1.46h0A3.61,3.61,0,0,1,442.55,159Zm-178.7-10.13a3.51,3.51,0,0,1,1.29-4.82h0a3.52,3.52,0,0,1,4.82,1.27h0a3.54,3.54,0,0,1-1.27,4.84h0a3.61,3.61,0,0,1-1.78.48h0A3.53,3.53,0,0,1,263.85,148.84Zm164.66,1a3.53,3.53,0,0,1-1.3-4.82h0a3.53,3.53,0,0,1,4.83-1.3h0a3.53,3.53,0,0,1,1.3,4.82h0a3.54,3.54,0,0,1-3.07,1.77h0A3.63,3.63,0,0,1,428.51,149.87Zm-149.62-9.15a3.54,3.54,0,0,1,1.78-4.67h0a3.55,3.55,0,0,1,4.69,1.78h0a3.53,3.53,0,0,1-1.79,4.67h0a3.49,3.49,0,0,1-1.44.31h0A3.55,3.55,0,0,1,278.89,140.72Zm134.71,1.57a3.54,3.54,0,0,1-1.81-4.67h0a3.55,3.55,0,0,1,4.67-1.8h0a3.55,3.55,0,0,1,1.8,4.67h0A3.53,3.53,0,0,1,415,142.6h0A3.45,3.45,0,0,1,413.6,142.29Zm-118.88-8.08a3.54,3.54,0,0,1,2.26-4.46h0a3.55,3.55,0,0,1,4.46,2.27h0a3.53,3.53,0,0,1-2.26,4.46h0a3.58,3.58,0,0,1-1.11.18h0A3.53,3.53,0,0,1,294.72,134.21ZM398,136.32a3.52,3.52,0,0,1-2.28-4.46h0a3.53,3.53,0,0,1,4.44-2.27h0a3.51,3.51,0,0,1,2.28,4.45h0a3.53,3.53,0,0,1-3.37,2.45h0A3.62,3.62,0,0,1,398,136.32Zm-86.84-6.9a3.55,3.55,0,0,1,2.72-4.21h0a3.56,3.56,0,0,1,4.2,2.73h0a3.52,3.52,0,0,1-2.72,4.19h0a3.27,3.27,0,0,1-.75.09h0A3.55,3.55,0,0,1,311.13,129.42ZM381.8,132a3.56,3.56,0,0,1-2.75-4.19h0a3.56,3.56,0,0,1,4.19-2.74h0a3.55,3.55,0,0,1,2.75,4.19h0a3.55,3.55,0,0,1-3.47,2.81h0A4.39,4.39,0,0,1,381.8,132ZM328,126.36a3.55,3.55,0,0,1,3.16-3.88h0a3.54,3.54,0,0,1,3.89,3.14h0a3.53,3.53,0,0,1-3.16,3.89h0a2.23,2.23,0,0,1-.36,0h0A3.55,3.55,0,0,1,328,126.36Zm37.31,3.1a3.54,3.54,0,0,1-3.15-3.88h0a3.52,3.52,0,0,1,3.87-3.15h0a3.52,3.52,0,0,1,3.17,3.87h0a3.53,3.53,0,0,1-3.52,3.17h-.37Zm-16.71-.84ZM345,125.09a3.53,3.53,0,0,1,3.53-3.54h0a3.55,3.55,0,0,1,3.54,3.54h0a3.54,3.54,0,0,1-3.54,3.53h0A3.53,3.53,0,0,1,345,125.09Z"/><path class="cls-14" d="M290.82,264.58l-4.1,5.57a1.31,1.31,0,0,1-1.84.28,1.24,1.24,0,0,1-.28-.28L281.52,266l-1.14-1.55a1.3,1.3,0,0,1,.27-1.84,1.26,1.26,0,0,1,.82-.26l2.7.05,5.61.12a1.31,1.31,0,0,1,1,2.1Z"/><path class="cls-14" d="M291.87,291.3a1.32,1.32,0,0,1-.27,1.85,1.38,1.38,0,0,1-.82.26l-6.32-.14-3.24-.06a1.31,1.31,0,0,1-1.27-1.36,1.22,1.22,0,0,1,.25-.74l1.34-1.82,3.37-4.59a1.32,1.32,0,0,1,1.84-.28,1.54,1.54,0,0,1,.29.28Z"/><path class="cls-14" d="M282.4,276.9a1.11,1.11,0,0,1,0,1.32l-3.95,5.36-7.14,9.74-8.16-.16,9.15-12.43h-24v12.92l-8.4-.15V262.24h21.05l4.53,6.06H248.26v6.05h23.38l-8.89-12.11,9,.19,7,9.51Z"/><path class="cls-14" d="M305.62,277h-3.31v15h-6.15V277h-2.23v-5.1h2.23v-.58a7.21,7.21,0,0,1,2.13-5.63q2.11-1.92,6.22-1.92c.45,0,.79,0,1,0V269a3.6,3.6,0,0,0-2.49.5,2.78,2.78,0,0,0-.72,2.2v.18h3.31Z"/><path class="cls-14" d="M326.52,271.87v20.07h-6.15V289.2a6.69,6.69,0,0,1-2.54,2.14,7.68,7.68,0,0,1-3.54.81,8,8,0,0,1-4.06-1,6.93,6.93,0,0,1-2.74-3,10.19,10.19,0,0,1-1-4.57V271.87h6.12v10.9a4.36,4.36,0,0,0,1,3.12,3.63,3.63,0,0,0,2.81,1.12,3.7,3.7,0,0,0,2.84-1.12,4.4,4.4,0,0,0,1-3.12v-10.9Z"/><path class="cls-14" d="M340.33,286.72v5.22H337.2A7.64,7.64,0,0,1,332,290.3q-1.87-1.64-1.87-5.34v-8h-2.45v-5.1h2.45V267h6.15v4.89h4V277h-4V285a1.7,1.7,0,0,0,.43,1.3,2.14,2.14,0,0,0,1.44.39Z"/><path class="cls-14" d="M361.77,271.87v20.07h-6.15V289.2a6.77,6.77,0,0,1-2.54,2.14,7.71,7.71,0,0,1-3.54.81,8,8,0,0,1-4.06-1,6.93,6.93,0,0,1-2.74-3,10.06,10.06,0,0,1-1-4.57V271.87h6.12v10.9a4.36,4.36,0,0,0,1,3.12,3.62,3.62,0,0,0,2.8,1.12,3.71,3.71,0,0,0,2.85-1.12,4.4,4.4,0,0,0,1-3.12v-10.9Z"/><path class="cls-14" d="M373.24,272.6a7,7,0,0,1,3.6-1v6.51h-1.69a5.15,5.15,0,0,0-3.45,1,4.39,4.39,0,0,0-1.16,3.47v9.32h-6.15V271.87h6.15v3.34A8.2,8.2,0,0,1,373.24,272.6Z"/><path class="cls-14" d="M396.8,283.38H382.88a4.21,4.21,0,0,0,1.21,2.86,3.66,3.66,0,0,0,2.61,1,3.23,3.23,0,0,0,3.2-2h6.54a8.92,8.92,0,0,1-1.81,3.56,9.13,9.13,0,0,1-3.3,2.49,10.52,10.52,0,0,1-4.42.9,10.73,10.73,0,0,1-5.25-1.26,9,9,0,0,1-3.6-3.6,12.31,12.31,0,0,1,0-10.93,8.93,8.93,0,0,1,3.58-3.6,11.67,11.67,0,0,1,10.47,0,8.81,8.81,0,0,1,3.54,3.49,10.6,10.6,0,0,1,1.28,5.29A16.37,16.37,0,0,1,396.8,283.38ZM390.62,280a3.18,3.18,0,0,0-1.08-2.52,4,4,0,0,0-2.7-.93,3.91,3.91,0,0,0-2.61.9,4,4,0,0,0-1.31,2.55Z"/><path class="cls-14" d="M426.94,266.69v25.25h-6.15V276.79l-5.64,15.15h-5l-5.68-15.18v15.18h-6.15V266.69h7.26l7.09,17.48,7-17.48Z"/><path class="cls-14" d="M458.38,271.87,453,291.94h-6.8l-3.16-13-3.28,13H433l-5.47-20.07h6.15l2.85,14.35,3.38-14.35h6.51l3.41,14.28,2.81-14.28Z"/><path class="cls-14" d="M460.67,263.82H458v-1h6.53v1H461.9v7.24h-1.23Z"/><path class="cls-14" d="M472.84,267.61c0-1.51,0-3.08.05-4h0c-.36,1.41-1.61,4.81-2.53,7.41h-1.08c-.7-2.15-2-6-2.36-7.43h0c.07,1,.1,2.77.1,4.19v3.24h-1.15v-8.28h1.83c.89,2.49,2,5.69,2.23,6.78h0c.2-.85,1.47-4.35,2.39-6.78H474v8.28h-1.2Z"/><path class="cls-14" d="M292.11,303.1h4.27c2.19,0,3.68,1.22,3.68,3.25,0,2.2-1.6,3.33-3.76,3.33h-2.54v4.46h-1.65Zm1.65,5.22h2.42c1.44,0,2.2-.68,2.2-1.93s-.9-1.93-2.14-1.93h-2.48Z"/><path class="cls-14" d="M313.32,309.36v4.78H311.7v-11h4.42c2.29,0,3.52,1.25,3.52,3a2.54,2.54,0,0,1-1.83,2.6c.83.23,1.62.88,1.62,2.81V312a8.28,8.28,0,0,0,.15,2.17H318a7.62,7.62,0,0,1-.19-2.39v-.22c0-1.51-.42-2.17-2.36-2.17Zm0-1.36h2.32c1.62,0,2.32-.61,2.32-1.79s-.73-1.75-2.17-1.75h-2.47Z"/><path class="cls-14" d="M338.74,309.05h-5.45v3.7h6l-.21,1.39h-7.39v-11H339v1.39h-5.7v3.18h5.45Z"/><path class="cls-14" d="M360.27,309.54c0-2,0-4.11.07-5.29h-.06c-.48,1.88-2.14,6.42-3.36,9.89h-1.45c-.93-2.86-2.65-8-3.14-9.91h-.06c.09,1.28.13,3.7.13,5.59v4.32h-1.53v-11h2.44c1.18,3.32,2.61,7.59,3,9h0c.27-1.13,2-5.8,3.19-9h2.37v11h-1.6Z"/><path class="cls-14" d="M376.07,303.1v11h-1.64v-11Z"/><path class="cls-14" d="M390.19,303.1v6.63c0,2.52,1.37,3.21,2.74,3.21,1.6,0,2.71-.76,2.71-3.21V303.1h1.64v6.55c0,3.62-2,4.63-4.38,4.63s-4.37-1.09-4.37-4.54V303.1Z"/><path class="cls-14" d="M419.16,309.54c0-2,0-4.11.07-5.29h-.07c-.48,1.88-2.14,6.42-3.36,9.89h-1.45c-.93-2.86-2.65-8-3.14-9.91h0c.08,1.28.12,3.7.12,5.59v4.32h-1.53v-11h2.45c1.18,3.32,2.6,7.59,3,9h0c.27-1.13,2-5.8,3.19-9h2.37v11h-1.59Z"/><path class="cls-14" d="M272.08,328.62c0-2,0-4.11.07-5.29h-.06c-.49,1.88-2.14,6.42-3.37,9.89h-1.45c-.93-2.87-2.64-8-3.14-9.91h-.05c.08,1.28.12,3.7.12,5.59v4.32h-1.53V322.17h2.45c1.18,3.33,2.6,7.6,3,9.05h0c.26-1.14,2-5.8,3.18-9.05h2.37v11.05h-1.59Z"/><path class="cls-14" d="M293.29,328.13h-5.46v3.7h6l-.21,1.39h-7.39V322.17h7.31v1.39h-5.71v3.18h5.46Z"/><path class="cls-14" d="M314.82,328.62c0-2,0-4.11.08-5.29h-.07c-.48,1.88-2.14,6.42-3.36,9.89H310c-.93-2.87-2.65-8-3.14-9.91h-.05c.08,1.28.12,3.7.12,5.59v4.32h-1.53V322.17h2.44c1.18,3.33,2.61,7.6,3,9.05h0c.27-1.14,2-5.8,3.19-9.05h2.37v11.05h-1.6Z"/><path class="cls-14" d="M329,322.17h4.35c2.4,0,3.47,1.26,3.47,2.78a2.44,2.44,0,0,1-1.55,2.4,2.71,2.71,0,0,1,1.9,2.62c0,2-1.57,3.25-3.71,3.25H329Zm4.07,4.55c1.51,0,2.11-.61,2.11-1.63s-.69-1.59-1.91-1.59h-2.66v3.22Zm-2.46,5.17h2.62c1.37,0,2.26-.63,2.26-1.94,0-1.14-.74-1.9-2.49-1.9h-2.39Z"/><path class="cls-14" d="M356,328.13h-5.45v3.7h6l-.2,1.39H349V322.17h7.31v1.39h-5.71v3.18H356Z"/><path class="cls-14" d="M369.77,328.44v4.78h-1.62V322.17h4.42c2.29,0,3.52,1.25,3.52,3a2.53,2.53,0,0,1-1.83,2.6c.83.24,1.62.89,1.62,2.82v.49a8.31,8.31,0,0,0,.15,2.17h-1.58a7.66,7.66,0,0,1-.19-2.4v-.22c0-1.5-.42-2.16-2.36-2.16Zm0-1.36h2.32c1.62,0,2.32-.61,2.32-1.79s-.74-1.76-2.17-1.76h-2.47Z"/><path class="cls-14" d="M389,330.11a2.43,2.43,0,0,0,2.71,2c1.64,0,2.3-.75,2.3-1.75s-.55-1.65-2.7-2.16c-2.68-.65-3.55-1.58-3.55-3.12,0-1.69,1.25-3,3.75-3,2.68,0,3.78,1.53,3.93,3h-1.66a2,2,0,0,0-2.33-1.72c-1.27,0-2,.57-2,1.57s.59,1.37,2.5,1.83c3.16.77,3.74,2,3.74,3.43,0,1.83-1.36,3.22-4.1,3.22s-4-1.49-4.27-3.25Z"/><path class="cls-14" d="M407.42,322.17h1.63v4.56h5.51v-4.56h1.64v11.05h-1.64v-5.1h-5.51v5.1h-1.63Z"/><path class="cls-14" d="M430.4,322.17v11.05h-1.64V322.17Z"/><path class="cls-14" d="M443,322.17h4.26c2.19,0,3.68,1.23,3.68,3.26,0,2.2-1.6,3.33-3.76,3.33h-2.54v4.46H443Zm1.64,5.23H447c1.44,0,2.2-.68,2.2-1.93a1.88,1.88,0,0,0-2.14-1.94h-2.48Z"/></svg>