<?xml version="1.0" encoding="utf-8"?>
<!-- Generator: Adobe Illustrator 26.0.1, SVG Export Plug-In . SVG Version: 6.00 Build 0)  -->
<svg version="1.1" id="Layer_1" xmlns="http://www.w3.org/2000/svg" xmlns:xlink="http://www.w3.org/1999/xlink" x="0px" y="0px"
	 viewBox="0 0 666.8 157.1" style="enable-background:new 0 0 666.8 157.1;" xml:space="preserve">
<style type="text/css">
	.st0{fill:none;stroke:#231F20;stroke-miterlimit:10;}
	.st1{fill:#37B34A;}
	.st2{fill:#EC1C24;}
	.st3{fill:#1C64F2;}
	.st4{enable-background:new    ;}
</style>
<line class="st0" x1="128.7" y1="28.4" x2="128.7" y2="28.4"/>
<path class="st1" d="M165.2,35.5l-12.4,16.9c-1.3,1.8-3.8,2.2-5.6,0.9c-0.3-0.2-0.6-0.5-0.9-0.9L137,39.7l-3.5-4.7
	c-1.3-1.8-1-4.3,0.8-5.6c0.7-0.5,1.6-0.8,2.5-0.8l8.2,0.2l17.1,0.4c2.2,0,4,1.9,3.9,4.1C166,34,165.7,34.8,165.2,35.5z"/>
<line class="st0" x1="128.7" y1="28.4" x2="128.7" y2="28.4"/>
<path class="st2" d="M168.4,116.6c1.3,1.8,1,4.3-0.8,5.6c-0.7,0.5-1.6,0.8-2.5,0.8l-19.2-0.4l-9.8-0.2c-2.2-0.1-3.9-1.9-3.9-4.1
	c0-0.8,0.3-1.6,0.8-2.3l4.1-5.5l10.2-13.9c1.3-1.8,3.8-2.2,5.6-0.9c0.3,0.2,0.6,0.5,0.9,0.9L168.4,116.6z"/>
<path class="st3" d="M139.7,72.9c0.8,1.2,0.8,2.8,0,4l-12,16.3L106,122.7l-24.8-0.5L109,84.5H36v39.2l-25.5-0.5V28.4h63.9l13.8,18.4
	H36v18.4h71L80,28.4l27.3,0.6l21.3,28.9L139.7,72.9z"/>
<g class="st4">
	<path class="st3" d="M206.7,73.4h-9V114H181V73.4h-6.1V59.5h6.1V58c0-6.7,1.9-11.8,5.8-15.3c3.8-3.5,9.5-5.2,16.9-5.2
		c1.2,0,2.1,0,2.7,0.1v14.2c-3.2-0.2-5.4,0.3-6.7,1.4c-1.3,1.1-2,3.1-2,6v0.5h9V73.4z"/>
	<path class="st3" d="M263.5,59.5V114h-16.7v-7.4c-1.7,2.4-4,4.3-6.9,5.8c-2.9,1.5-6.1,2.2-9.6,2.2c-4.2,0-7.9-0.9-11-2.8
		c-3.2-1.9-5.7-4.5-7.4-8.1s-2.6-7.7-2.6-12.4V59.5h16.6v29.6c0,3.6,0.9,6.5,2.8,8.5c1.9,2,4.4,3,7.6,3c3.3,0,5.8-1,7.7-3
		c1.9-2,2.8-4.9,2.8-8.5V59.5H263.5z"/>
	<path class="st3" d="M301,99.9V114h-8.5c-6.1,0-10.8-1.5-14.2-4.4c-3.4-3-5.1-7.8-5.1-14.5V73.4h-6.6V59.5h6.6V46.2h16.7v13.3h10.9
		v13.9h-10.9v21.9c0,1.6,0.4,2.8,1.2,3.5c0.8,0.7,2.1,1.1,3.9,1.1H301z"/>
	<path class="st3" d="M359.2,59.5V114h-16.7v-7.4c-1.7,2.4-4,4.3-6.9,5.8c-2.9,1.5-6.1,2.2-9.6,2.2c-4.2,0-7.9-0.9-11-2.8
		c-3.2-1.9-5.7-4.5-7.4-8.1s-2.6-7.7-2.6-12.4V59.5h16.6v29.6c0,3.6,0.9,6.5,2.8,8.5c1.9,2,4.4,3,7.6,3c3.3,0,5.8-1,7.7-3
		c1.9-2,2.8-4.9,2.8-8.5V59.5H359.2z"/>
	<path class="st3" d="M390.4,61.5c2.9-1.7,6.2-2.6,9.8-2.6v17.7h-4.6c-4.2,0-7.3,0.9-9.4,2.7c-2.1,1.8-3.1,4.9-3.1,9.4V114h-16.7
		V59.5h16.7v9.1C385,65.6,387.5,63.3,390.4,61.5z"/>
	<path class="st3" d="M454.4,90.8h-37.8c0.3,3.4,1.4,6,3.3,7.8c1.9,1.8,4.3,2.7,7.1,2.7c4.2,0,7.1-1.8,8.7-5.3h17.8
		c-0.9,3.6-2.6,6.8-4.9,9.7c-2.4,2.9-5.4,5.1-8.9,6.7c-3.6,1.6-7.6,2.4-12,2.4c-5.3,0-10.1-1.1-14.3-3.4c-4.2-2.3-7.4-5.5-9.8-9.8
		c-2.3-4.2-3.5-9.2-3.5-14.9s1.2-10.6,3.5-14.9c2.3-4.2,5.6-7.5,9.7-9.8c4.2-2.3,9-3.4,14.4-3.4c5.3,0,10,1.1,14.1,3.3
		c4.1,2.2,7.3,5.4,9.6,9.5c2.3,4.1,3.5,8.9,3.5,14.4C454.7,87.5,454.6,89.1,454.4,90.8z M437.6,81.5c0-2.9-1-5.1-2.9-6.8
		c-2-1.7-4.4-2.5-7.3-2.5c-2.8,0-5.2,0.8-7.1,2.4c-1.9,1.6-3.1,3.9-3.6,6.9H437.6z"/>
	<path class="st3" d="M536.3,45.5V114h-16.7V72.9L504.2,114h-13.5l-15.4-41.2V114h-16.7V45.5h19.7l19.3,47.5l19.1-47.5H536.3z"/>
	<path class="st3" d="M621.7,59.5L606.9,114h-18.5l-8.6-35.4L571,114h-18.4l-14.9-54.5h16.7l7.7,39l9.2-39h17.7l9.3,38.8l7.6-38.8
		H621.7z"/>
</g>
<path class="st3" d="M638.5,40.1v2.5h-4.1v12.9h-3.1V42.6h-4.1v-2.5H638.5z"/>
<path class="st3" d="M656.4,40.1v15.4h-3.1v-10l-4.1,10h-2.3l-4.2-10v10h-3.1V40.1h3.5l4.9,11.5l4.9-11.5L656.4,40.1z"/>
</svg>
